<?xml version="1.0" encoding="UTF-8"?>
<svg id="Calque_1" data-name="Calque 1" xmlns="http://www.w3.org/2000/svg" viewBox="0 0 428.85 561.41">
  <defs>
    <style>
      .cls-1 {
        fill: #fff;
      }

      .cls-2 {
        fill: #232770;
      }
    </style>
  </defs>
  <polygon class="cls-2" points="214.41 0 0 214.42 0 561.41 428.85 561.41 428.85 214.42 214.41 0"/>
  <g>
    <polygon class="cls-1" points="268.5 464.19 285.93 464.19 285.93 539.11 294.27 539.11 294.27 464.19 311.55 464.19 311.55 461.15 268.5 461.15 268.5 464.19"/>
    <polygon class="cls-1" points="317.54 538.93 353.69 538.93 353.69 535.88 325.9 535.88 325.9 497.97 343.7 497.97 343.7 494.92 325.9 494.92 325.9 464 353.69 464 353.69 460.96 317.54 460.96 317.54 538.93"/>
    <polygon class="cls-1" points="49.97 461.07 41.61 461.07 41.61 539.01 77.76 539.04 77.76 535.99 49.97 535.99 49.97 461.07"/>
    <path class="cls-1" d="M186.17,510.98h-5.02l-.1.83c-.33,2.77-.9,5.48-1.71,8.05-.8,2.55-1.89,4.9-3.23,6.97-1.45,2.21-3.18,4.03-5.15,5.42-1.98,1.39-4.04,2.39-6.01,2.96-2.87.41-5.48-.29-7.99-2.16-2.58-1.92-4.81-4.48-6.65-7.62-2.33-4-4.13-8.51-5.36-13.4-1.23-4.91-1.93-10.01-2.1-15.16-.16-4.69.18-9.41,1.03-14.05.84-4.6,2.34-8.8,4.46-12.48,1.73-3,3.9-5.2,6.42-6.52,1.47-.7,3.02-1.09,4.61-1.17,1.62-.08,3.23.06,4.8.43,1.81.4,3.57,1.14,5.22,2.21,1.65,1.06,3.17,2.51,4.5,4.3,1.45,1.99,2.63,4.3,3.51,6.87.23.7.53,1.29.89,1.77.27.36.72.55,1.36.58.5.02,1.83-.06,2.5-.67.1-.07.19-.15.29-.24l.5-.47-.29-.62c-1.95-4.2-4.43-7.8-7.37-10.67-2.97-2.91-6.32-4.9-10.02-5.92-1.15-.22-2.3-.38-3.42-.49-1.16-.11-2.36-.11-3.58.02-2.06.26-4.09.87-6.05,1.8-3.86,1.88-7.26,4.87-10.12,8.89-2.83,4-4.98,8.64-6.39,13.8-1.41,5.14-2.08,10.55-1.99,16.09.11,5.54.99,10.89,2.59,15.92,1.61,5.04,3.94,9.52,6.92,13.32,3.12,3.85,6.72,6.56,10.69,8.06,2.18.83,4.4,1.24,6.65,1.24,1.89,0,3.79-.29,5.71-.88,4.76-1.6,8.91-4.78,12.33-9.44,3.38-4.61,5.84-10.12,7.31-16.38l.27-1.16Z"/>
    <polygon class="cls-1" points="370.41 535.95 370.41 461.03 362.05 461.03 362.05 538.97 398.2 539 398.2 535.95 370.41 535.95"/>
    <path class="cls-1" d="M253.54,500.99c1.8-.65,3.59-1.4,5.36-2.26,3.12-1.64,5.5-4.25,7.05-7.75,1.52-3.42,2.29-7.01,2.29-10.67,0-4.48-1.04-8.53-3.08-12.05-1.69-2.89-3.87-5.02-6.49-6.33-1.27-.58-2.48-.93-3.6-1.02-1.6-.14-2.97-.16-4.06-.11h-18.35v77.97h8.36v-32.79l2.74-1.1,18.74,34.1h10.28l-20.6-37.48c.45-.18.91-.35,1.37-.51ZM258.89,480.79c0,3.92-.71,7.6-2.12,10.94-1.02,2.38-2.37,4.37-3.96,5.87-.34.27-1.85,1.11-8.25,3.72-1.44.59-2.63,1.06-3.56,1.44v-38.9h11.8c2.04,1.93,3.56,4.39,4.53,7.3,1.03,3.1,1.55,6.34,1.55,9.62Z"/>
    <polygon class="cls-1" points="83.01 539.04 119.16 539.04 119.16 535.99 91.37 535.99 91.37 498.08 109.17 498.08 109.17 495.04 91.37 495.04 91.37 464.12 119.16 464.12 119.16 461.07 83.01 461.07 83.01 539.04"/>
    <path class="cls-1" d="M203.54,460.69l-17.07,64.94c-1.99,7.54-3.03,11.53-3.15,11.97l-.3,1.17h2.8l.2-.68c.03-.1.24-.89.63-2.38l1.43-5.41c.68-2.63,1.34-5.13,1.97-7.49.47-1.79.83-3.12,1.05-3.98h20.91l5.24,19.96h8.84l-20.52-78.09h-2.04ZM197.22,495.57c.53-2.05,1.07-4.09,1.61-6.15.5-1.93,1.01-3.86,1.53-5.8l1.2-4.59,9.67,36.74h-19.33l5.32-20.2Z"/>
  </g>
</svg>