<?xml version="1.0" encoding="UTF-8"?>
<svg id="Calque_1" data-name="Calque 1" xmlns="http://www.w3.org/2000/svg" viewBox="0 0 428.85 561.41">
  <defs>
    <style>
      .cls-1 {
        fill: #fff;
      }

      .cls-2 {
        fill: #247d40;
      }
    </style>
  </defs>
  <polygon class="cls-2" points="214.41 0 0 214.42 0 561.41 428.85 561.41 428.85 214.42 214.41 0"/>
  <g>
    <path class="cls-1" d="M71.25,464.18c-1.84,4.74-3.3,12.66-5.77,16.85-.5.85-10.42,10.93-11.15,11.23-1.33.55-.58-3.75-.45-4.43.45-2.27,2.23-5.94,3.96-7.48,1.26-1.12,6.03-2.95,6.22-3.23.64-.93-.34-3.28-2.8-2.8-4.9.96-9.4,6.62-10.67,11.22-1.1,3.96-2.38,11.31,3.72,10.21l9.46-9.21c-.02,1.85-2.96,8.76-1.5,9.71.63.41,2.19.14,3,.73,1.82-10.82,6.08-20.97,9.88-31.18.27-1.25-3.51-1.94-3.89-1.62Z"/>
    <path class="cls-1" d="M198.82,351.8c-7.55.51-14.15,13.08-11,19.87,2.24,4.82,13.02,2.31,12.68-2.98-6.43,2.52-11.5,6.39-8.96-4.26,4.78.84,11.24.67,13.28-4.59.66-1.71.92-4.89-.3-6.35-.57-.68-4.7-1.75-5.7-1.68ZM201.27,358.78c-1.12,3.59-5.64,3.78-8.72,3.45.27-2.9,4.81-7.07,7.44-7.74,2.15-.55,1.69,3.01,1.29,4.29Z"/>
    <path class="cls-1" d="M223.87,451.48v-32.57h-10.69c-.05,0-.75.69-.75.75v24.36c-20.57,11.54-44.6-2.64-39.63-27.2,3.75-18.54,23.11-22.11,38.9-16.82,2.65.89,5.12,2.44,7.69,3.5v-11.19c-23.45-13.59-56.97-3.88-59.6,25.92-3.38,38.33,35.18,50.98,64.08,33.25Z"/>
    <path class="cls-1" d="M79.38,496.42c2.48-.64,6.66-2.25,5.03-5.41-2.6,1.59-5.59,3.02-8.7,2.98v-6.96c5.81,1.43,13.71.1,13.96-7.21.03-.75-.25-3.13-.66-3.61-.31-.35-4.42-1.62-5.12-1.64-2.63-.07-6.84,2.93-8.45,4.99-4.29,5.51-6.94,19.67,3.94,16.86ZM85.64,477.08c.37,2.09.51,4.88-1.22,6.48-1.28,1.18-6.88,2.43-7.23.72-.38-1.86,6.06-7.68,8.45-7.2Z"/>
    <path class="cls-1" d="M203.99,369.19c-.88,3.26-.78,3.7,2.49,4.72,4.81,1.5,12.96-.34,11.2-6.73-.8-2.89-12.24-12.66-2.51-11.93,1.98.15,3.69,1.5,5.71,1.5l1.02-3.46c-5.96-2.46-15.97-1.14-13.69,7.47.88,3.32,6.71,6.26,6.23,10.42-4.04.69-6.8-.92-10.44-1.99Z"/>
    <path class="cls-1" d="M180.39,342.33c-3.71-1.13-3.33-.42-4.38,2.62-3.18,9.14-5.47,19.31-7.83,28.72l15.61-.46.8-3.51h-11.44c1.64-8.96,5.91-17.92,7.9-26.67.24-1.03-.1-.52-.66-.69Z"/>
    <path class="cls-1" d="M61.74,391.86c-2.59-2.01-7.41-3.93-10.65-4.27-5.54-.59-12.01.43-17.65,0v70.6h15.66c4.16,0,11.12-2.32,14.41-4.98,10.3-8.37,8.16-29.72-6.2-32.31,1.5-1.37,3.31-1.83,4.98-3.22,7.45-6.25,7.04-19.92-.55-25.82ZM45.37,398.03c13.46-.44,13.52,19.3,0,18.89v-18.89ZM45.37,447.75v-22.87c16.49-.63,16.93,23.92,0,22.87Z"/>
    <path class="cls-1" d="M94.58,510.67c2.2,29.37,34,40.71,57.7,26.83v-11.68c-2.96,1.35-5.32,3.1-8.47,4.21-18.39,6.43-37.49-3.69-36.8-24.37.8-23.92,28.14-30.25,45.27-17.63v-11.68c-27.77-15.77-60.21.66-57.7,34.33Z"/>
    <path class="cls-1" d="M75.95,387.59c-.05,0-.75.69-.75.75v52.7c0,14.11,14.45,22.25,26.97,16.52,4.74-2.17,9.83-9.29,9.83-14.54v-55.44h-11.93v55.44c0,.65-1.78,3.92-2.5,4.46-2.78,2.1-7.07,1.49-8.94-1.48-.44-.69-1.49-3.86-1.49-4.48v-53.95h-11.19Z"/>
    <path class="cls-1" d="M150.56,421.92c11.05-11.1,3.5-34.33-12.45-34.33h-19.14v69.86c0,.05.69.75.75.75h11.19v-35.8l14.17,35.8h11.68l-12.42-31.61c.03-.95,4.95-3.38,6.23-4.67ZM130.89,420.4v-22.13c0-2.13,6.93.35,8.21,1.24,9.26,6.45,3.84,23.18-8.21,20.89Z"/>
    <polygon class="cls-1" points="352.65 542.22 352.65 482.06 361.6 482.06 361.6 471.62 331.77 471.62 331.77 482.06 340.72 482.06 340.72 542.22 352.65 542.22"/>
    <path class="cls-1" d="M298.45,482.06h8.95v59.42c0,.05.69.75.75.75h11.19v-60.16h8.95v-10.44h-29.83v10.44Z"/>
    <path class="cls-1" d="M295.14,423.3c9.14-6.76,9.03-22.6,1.09-30.26-2.2-2.13-8.49-5.46-11.45-5.46h-19.14v70.6h11.19c.05,0,.75-.69.75-.75v-34.56l13.42,35.3h11.68c.06,0,.97-.71.53-1.01l-12.72-30.58c.02-1.14,3.46-2.43,4.64-3.3ZM277.57,420.4v-22.87c16.52-1.02,16.6,24.32,0,22.87Z"/>
    <path class="cls-1" d="M336.24,400.02v-10.94c-25.04-10.85-39.44,11.91-23.35,32.55,4.99,6.4,13.69,11.38,12.93,20.42-.84,9.92-13.52,5.75-19.41,3.21v10.94c3.43.94,6.64,2.56,10.25,2.92,19.79,2,27.36-16.23,17.99-31.91-3.39-5.66-14.78-14.77-15.69-20.11-2.06-11.95,9.81-11.27,17.28-7.09Z"/>
    <path class="cls-1" d="M379.75,482.06h15.66v-9.7c0-.05-.69-.75-.75-.75h-26.85c-.05,0-.75.69-.75.75v69.11c0,.05.69.75.75.75h26.85c.05,0,.75-.69.75-.75v-9.45c0-.05-.69-.75-.75-.75h-15.66v-22.37h13.18c.05,0,.75-.69.75-.75v-8.95c0-.05-.69-.75-.75-.75h-13.18v-15.66c0-.05.69-.75.75-.75Z"/>
    <polygon class="cls-1" points="294.48 482.06 294.48 471.62 266.63 471.62 266.63 542.22 294.48 542.22 294.48 531.28 278.57 531.28 278.57 508.91 291.99 508.91 291.99 498.47 278.57 498.47 278.57 482.06 294.48 482.06"/>
    <path class="cls-1" d="M189.32,543.21c53.34,4.37,54.4-73.92,3.64-72.96-47.08.88-47.26,69.39-3.64,72.96ZM191.45,481.71c35.9-3.34,34.21,56.59-2.5,49.94-26.73-4.84-25.64-47.33,2.5-49.94Z"/>
    <path class="cls-1" d="M237.05,471.62c-.05,0-.75.69-.75.75v69.11c0,.05.69.75.75.75h23.62v-10.94h-11.68c-.05,0-.75-.69-.75-.75v-58.92h-11.19Z"/>
    <polygon class="cls-1" points="231.33 458.19 259.17 458.19 259.17 447.25 243.26 447.25 243.26 424.88 256.69 424.88 256.69 414.44 243.26 414.44 243.26 398.03 259.17 398.03 259.17 387.59 231.33 387.59 231.33 458.19"/>
  </g>
</svg>