<?xml version="1.0" encoding="UTF-8"?>
<svg id="Calque_1" data-name="Calque 1" xmlns="http://www.w3.org/2000/svg" viewBox="0 0 428.85 561.41">
  <defs>
    <style>
      .cls-1 {
        fill: #fff;
      }

      .cls-2 {
        fill: #ff78c1;
      }
    </style>
  </defs>
  <polygon class="cls-2" points="214.41 0 0 214.42 0 561.41 428.85 561.41 428.85 214.42 214.41 0"/>
  <g>
    <path class="cls-1" d="M334.87,470.33c-2.95,1.08-4.61,3.03-6.51,4.61-4.26,3.54-8.7,6.8-13.45,9.65-.86.52-1.76.98-2.67,1.39-5.31,2.39-7.04,1.34-7.62-4.59-.25-2.58-.91-3.02-3.32-1.82-3.36,1.68-6.64,3.55-9.96,5.31-1.32.7-2.63,1.52-4.04,1.97-2.84.9-5.47-.95-5.99-3.98-.24-1.42.66-2.97-.66-4.46-2.8.43-4.77,2.38-6.8,4.21-2.83,2.56-5.97,4.6-9.65,5.68-2.2.65-3.86-.66-4.24-2.96-.37-2.22,1.13-4.45-.16-6.7-3.94-.07-7.17,1.98-10.54,3.6-4.29,2.06-8.48,4.34-13.11,5.66-2.48.71-4.92,1.11-7.42.5-3.21-.78-5.29-2.74-5.84-6.12-.37-2.27-.21-4.47.4-6.7,1.4-5.16,3.61-9.93,7.12-13.95,5.13-5.87,10.68-11.32,17.39-15.44,3.64-2.23,7.28-4.46,10.89-6.73,2.38-1.49,4.97-2.46,7.71-2.87,5.26-.77,8.86,3.53,6.98,8.43-.79,2.07-1.99,4.11-3.46,5.77-3.32,3.76-6.91,7.28-10.43,10.85-.5.5-1.25.96-1.93,1.02-.64.06-1.43-.3-1.97-.72-.58-.45-.99-1.28-.42-1.96,1.28-1.54,2.69-2.96,4.01-4.46,1.98-2.25,4.25-4.29,5.47-7.11.14-.32-.1-1-.39-1.28-.3-.29-.98-.52-1.32-.38-3.5,1.51-6.37,4.01-9.22,6.41-5.79,4.88-10.58,10.71-14.76,17.01-.55.83-1.01,1.73-1.45,2.63-1.09,2.27-2.71,5.02-1.06,7.04,2,2.44,4.61.05,6.73-.9,9.89-4.45,19.26-9.89,27.4-17.05,5.25-4.62,9.68-10.16,14.47-15.3,2.22-2.39,4.38-4.84,6.65-7.18.67-.69,1.6-1.19,2.48-1.62.39-.19,1.17-.2,1.42.05.48.5,1.1,1.34.96,1.85-.38,1.42-.95,2.85-1.74,4.08-4.06,6.35-8.21,12.63-12.32,18.94-.55.84-1.13,1.67-1.59,2.55-.31.6-.94,1.38.09,1.88.36.18,1.04.12,1.36-.11,2.84-2.07,5.94-3.91,8.37-6.38,15.7-15.95,30.41-32.74,42.41-51.74.24-.38.25-.91.38-1.4-.47-1.35-1.59-.91-2.47-.77-8.43,1.28-17.03,1.24-25.34,3.44-2.31.61-4.44-.48-4.2-1.8.32-1.78,1.75-2.24,3.29-2.51,10.63-1.83,20.88-5.5,31.67-6.5,2.7-.25,4.56-1.59,6.21-3.72,4.44-5.76,8.84-11.59,14.2-16.57,1.46-1.36,2.74-2.95,4.69-3.71,1.02-.4,1.95-.38,2.76.41.81.78,1.02,1.78.47,2.73-.88,1.51-1.89,2.95-2.89,4.39-2.87,4.12-5.77,8.21-8.62,12.34-.61.88,0,2.18.98,2.22,1,.04,2.01.04,3.01-.04,9.27-.69,18.54-1.35,27.8-2.11,3.49-.29,6.94-.89,10.43-1.24.7-.07,1.37.39,1.62,1.25.25.87-.13,1.55-.74,1.93-.82.52-1.77.96-2.72,1.12-5.68.98-11.36,2.05-17.08,2.74-9.22,1.11-18.22,3.69-27.56,3.91-2.25.05-3.65,1.39-4.91,3.04-4.42,5.79-9.04,11.43-13.27,17.35-9.92,13.89-19.68,27.9-29.44,41.9-.92,1.32-2.52,2.47-2.04,4.48.51.03,1.1.26,1.41.06,2.96-1.9,6-3.69,8.76-5.85,5.14-4.03,10.06-8.28,14.34-13.29,4.43-5.18,9.67-9.49,15.89-12.47,1.18-.56,2.45-1.04,3.28.34.76,1.26.02,2.35-.88,3.33-3.91,4.25-7.9,8.43-11.67,12.81-2.94,3.42-5.61,7.08-8.38,10.65-.46.59-.92,1.24-1.13,1.94-.2.64-.29,1.5-.01,2.06.46.94,1.33.38,1.88,0,4.94-3.45,9.94-6.82,14.73-10.47,9.99-7.62,19.35-16,28.5-24.61,1.26-1.18,2.69-2.21,4.16-3.12.62-.39,1.5-.07,1.96.62.26.39.57,1.01.43,1.35-.49,1.14-1.07,2.27-1.8,3.27-8.57,11.8-16.09,24.27-23.76,36.64-5.45,8.8-12.06,16.63-18.83,24.42-10.77,12.4-24.4,20.74-38.57,28.42-1.76.96-3.66,1.72-5.31,2.84-6.53,4.44-13.83,7-21.32,9.22-20.39,6.05-41.18,8.79-62.45,7.97-3.55-.14-6.95-.84-10.35-1.78-7.28-2.02-14.1-5.21-20.9-8.4-3.43-1.61-6.19-4.27-8.71-7.1-.63-.71-1.11-1.7-1.27-2.63-.1-.58.39-1.38.84-1.9.21-.24.99-.21,1.39-.03.67.3,1.35.71,1.85,1.24,6.32,6.84,14.74,9.89,23.43,11,19.46,2.48,39.05,3.68,58.35-1.48,6.53-1.75,13.01-3.86,19.26-6.43,8.12-3.33,16.17-6.92,23.91-11.04,13.68-7.29,25.4-17.05,34.51-29.73,3.66-5.1,7.26-10.24,10.81-15.42.65-.95,1.64-1.88,1.2-3.91Z"/>
    <path class="cls-1" d="M166.56,474.09c-2.02-.29-3.16,1.29-4.62,2.14-4.98,2.9-9.74,6.18-15.03,8.54-3.72,1.66-7.51,2.78-11.63,2.56-4.81-.27-6.74-1.7-8.32-6.16-.49-1.39-.14-3.05-1.37-4.19-2.02-.42-3.25,1.02-4.67,1.97-2.51,1.66-4.94,3.43-7.48,5.03-1.26.79-2.65,1.44-4.06,1.91-1.68.57-3.47.86-4.99-.47-1.6-1.4-1.26-3.28-.65-4.89,3.11-8.25,7.02-16.1,12.79-22.84,3.91-4.57,8.21-8.81,12.07-13.42,3.02-3.61,6.86-5.76,11.03-7.57.78-.34,1.45-.35,2.05.15.96.78.78,1.85.26,2.71-1.29,2.15-2.68,4.23-4.09,6.3-3.94,5.81-7.93,11.59-11.83,17.43-.96,1.45-1.68,3.07-2.4,4.66-.14.31.13,1.05.44,1.25.31.2.98.12,1.34-.1.85-.51,1.67-1.11,2.39-1.79,5.63-5.35,11.28-10.68,16.84-16.1,4.5-4.39,9.14-8.62,14.62-11.75,3.27-1.87,6.69-3.48,10.55-3.71,4.28-.26,7.22,2.18,7.76,6.43.3,2.29.04,4.53-.99,6.61-3.2,6.48-8.13,11.37-14.16,15.22-.21.13-.45.25-.69.3-1,.18-1.99.31-2.72-.65-.72-.96-.57-1.94.22-2.67,1.65-1.53,3.47-2.88,5.11-4.42,2.19-2.05,4.42-4.09,5.67-6.94.35-.8.04-1.44-.36-2.08-.47-.77-1.29-.84-1.98-.64-.95.27-1.92.65-2.71,1.23-9.46,6.85-17.2,15.32-23.53,25.1-.53.83-.79,1.84-1.12,2.79-.33.95.73,2.05,1.72,1.77,3.87-1.09,7.64-2.47,11.15-4.43,4.16-2.31,8.27-4.74,12.39-7.14,5.44-3.17,10.43-6.8,14.58-11.69,3.72-4.38,7.88-8.43,12.52-11.92,2.82-2.12,5.76-3.99,9.03-5.36,1.88-.79,3.77-1.33,5.81-1.38,6.39-.17,10.16,4.94,8.19,11.12-.78,2.44-2.17,4.53-3.8,6.45-4.77,5.59-10.17,10.41-16.93,13.49-3.19,1.45-6.43,2.8-9.64,4.23-2.8,1.24-5.26,2.9-6.74,5.71-.4.76-.25,1.48.31,2.04.32.31.91.64,1.29.55,1.7-.4,3.42-.79,5.02-1.46,6.97-2.9,13.56-6.52,19.52-11.19,3.36-2.63,6.65-5.35,10.04-7.93.96-.73,2.15-1.2,3.29-1.64.33-.13.98.17,1.28.47.31.31.62.98.48,1.29-.5,1.11-1.02,2.3-1.83,3.18-8.64,9.28-18.85,16.49-29.93,22.52-3.79,2.06-7.96,3.08-12.29,3.14-5.83.07-8.62-2.82-8.89-8.75-.07-1.64,1.13-3.4-.35-4.95ZM186.09,466.05c7.4-2.93,13.19-6.69,18.16-11.71,1.59-1.61,3.04-3.31,3.71-5.53.3-.99.34-2.11-.63-2.64-.47-.25-1.48.05-2.01.43-6.93,4.94-13.28,10.52-18.71,17.1-.27.32-.22.91-.52,2.36Z"/>
    <path class="cls-1" d="M72.64,482.86c4.83-6.2,8.98-11.47,12.75-17.04,7.04-10.39,14.13-20.74,21.08-31.18,10.78-16.2,23.87-30.36,38.26-43.36,2.78-2.51,5.9-4.66,8.96-6.84.98-.7,2.26-1.04,3.44-1.37,1.12-.32,2.54,1.31,2.13,2.35-.27.69-.54,1.41-.95,2.02-8.69,12.59-17.25,25.27-26.14,37.71-6.56,9.18-13.66,17.97-20.29,27.1-5.45,7.5-10.59,15.23-15.85,22.87-8.69,12.64-18.8,24.12-29.09,35.44-2.18,2.4-4.69,4.52-7.2,6.57-1.65,1.35-3.64,1.45-5.7.69-2.24-.83-3.3-2.37-2.85-4.58.15-.73.44-1.43.68-2.14,7.84-22.6,12.79-45.86,16.27-69.48,1.89-12.82,1.39-25.5-1.68-38.09-.29-1.19-.38-2.46-.4-3.69,0-.35.5-.86.89-1.03.4-.18,1.01-.18,1.41,0,1.72.79,2.51,2.45,3.19,4.03,2.41,5.55,4.32,11.27,4.79,17.34.9,11.54.78,23.06-.74,34.56-.92,6.97-1.78,13.93-3.29,20.8-.42,1.92-.79,3.95.33,7.33Z"/>
    <path class="cls-1" d="M271.03,516.94c-.22.56-.5,1.52-.97,2.36-.2.36-.81.67-1.25.68-.42.02-.88-.34-1.29-.6-.2-.12-.42-.37-.45-.59-1.15-8.48-7.7-11.33-14.55-13.22-8.23-2.26-16.7-3.58-25.31-3-6.5.44-13.03.85-19.48,1.72-11.69,1.57-23.42,2.71-35.17,3.6-13.8,1.04-27.28,3.97-40.7,7.15-7.07,1.68-14.07,3.64-21.15,5.26-4.9,1.12-9.72,2.39-14.39,4.28-1.37.56-2.85.97-4.32,1.11-1.01.1-1.93-.64-2.14-1.73-.14-.72.08-1.54.88-1.86,1.62-.66,3.25-1.29,4.91-1.86,21.15-7.26,42.89-12.22,64.86-16.22,9.37-1.71,18.73-3.47,28.1-5.19,16.39-3.01,32.94-3.12,49.5-2.46,6.28.25,12.4,1.86,18.42,3.6,4.45,1.28,8.08,3.97,10.98,7.59,2.09,2.61,3.32,5.58,3.52,9.38Z"/>
    <path class="cls-1" d="M101.71,411.43c1.11-4.61,4.78-6.06,8.78-6.67,2.62-.4,4.45,2.79,3.34,5.29-.96,2.15-2.56,3.73-4.61,4.74-1.77.87-3.68,1.47-5.6,2.22.97,1.53,2.16.8,3.17.48,1.66-.53,3.23-1.37,4.9-1.81.48-.13,1.31.58,1.78,1.08.23.25.22,1.07-.02,1.38-3.32,4.34-11.1,5.87-15.33,2.75-1.42-1.05-2.4-1.49-3.91-.58-.85.51-1.75,1.05-2.7,1.25-.61.13-1.53-.13-1.97-.56-.44-.43-.81-1.48-.58-1.94,1-2,2.08-3.99,3.4-5.79,4.89-6.66,9.88-13.23,14.82-19.85,2.24-3.01,4.43-6.05,6.68-9.06.73-.97,1.63-2.23,2.96-1.19,1.22.94.59,2.36-.06,3.39-1.61,2.53-3.33,4.99-5.1,7.41-3.1,4.24-6.24,8.46-9.45,12.61-1.23,1.59-1.28,3.14-.51,4.85-1.12-.69-2.32-.6-3.53-.42,0,0,.21.38.21.38l-.11-.46c1.15.16,2.3.32,3.44.48Z"/>
    <path class="cls-1" d="M149.51,426.43c-.66-.2-1.65-.4-2.56-.78-2.07-.87-2.72-3.15-1.54-4.97,1.42-2.19,3.5-3.55,5.78-4.67,2.11-1.03,4.28-.39,5.9,1.68,1.21,1.56.95,3.76-.62,5.46-1.79,1.94-4.05,2.89-6.95,3.27Z"/>
    <path class="cls-1" d="M302.5,421.86c.12-.37.26-1.39.76-2.17,1.75-2.7,4.75-3.74,7.7-2.83,1.41.43,2.34,2.18,1.89,3.52-1,2.91-4.5,5.28-7.42,5-1.43-.14-2.77-1.48-2.93-3.51Z"/>
  </g>
</svg>