<?xml version="1.0" encoding="UTF-8"?>
<svg id="Calque_1" data-name="Calque 1" xmlns="http://www.w3.org/2000/svg" viewBox="0 0 428.85 561.41">
  <defs>
    <style>
      .cls-1 {
        fill: #333332;
      }

      .cls-2 {
        fill: #fff;
      }
    </style>
  </defs>
  <polygon class="cls-1" points="214.41 0 0 214.42 0 561.41 428.85 561.41 428.85 214.42 214.41 0"/>
  <g>
    <path class="cls-2" d="M118.45,470.34c-.08-.53-.15-1.06-.21-1.6-.06-.57-.04-1.14-.02-1.69.03-.79.06-1.54-.17-2.25-.06-.2-.06-.44.02-.7.2-.65.08-1.38-.32-2.01-.49-.77-.54-1.44-.41-2.02l-1.74.95,1.74-2.23c.06-.07.07-.26.08-.45,0-.15.02-.33.06-.51-.05-.01-.1-.03-.14-.04l-.41-.15.03-.44c.02-.28.1-.52.16-.73.1-.31.15-.47.06-.66-.51-1.19-.44-2.47.22-3.71.11-.21.12-.34.1-.36-.66-.71-.67-1.53-.67-2.19,0-.25,0-.48-.03-.7-.08-.55-.02-1.05.05-1.53.03-.22.06-.44.07-.65.02-.43-.05-.86-.14-1.32-.05-.28-.1-.57-.13-.85-.02-.21-.03-.42-.04-.64-.02-.42-.03-.82-.16-1.18-.17-.49-.32-1.04-.16-1.7.05-.21-.02-.38-.09-.47-.05-.06-.1-.09-.12-.08-.72.03-1.42-.06-2.09-.15-.53-.07-1.02-.14-1.53-.15-.2,0-.41,0-.61,0-.75,0-1.53,0-2.32-.15-1.23-.23-2.58-.25-4.37-.08l-.28.03-.11-.11s-.08.05-.1.06c-.19.12-.47.29-.8.19-.15-.05-.28-.14-.38-.28-.14.03-.3.04-.47-.02l-.11-.04c-.24-.09-.45-.17-.6-.13-.27.07-.54.04-.75.01-.1-.01-.24-.03-.29-.02,0,0-.02.03-.04.07l-.21.5-.51-.17c-.33-.11-.69-.09-1.06-.06-.78.07-1.54.25-2.35.45-.79.19-1.61.39-2.46.47-.23.02-.47.07-.72.13-.34.08-.7.15-1.09.17-.46.02-.77.3-1.24.77-.19.19-.38.38-.61.56-.1.08-.22.16-.33.23-.39.26-.52.37-.53.64-.01.73-.15,1.44-.28,2.12-.09.47-.18.91-.23,1.36-.02.23-.04.47-.06.7-.05.65-.11,1.31-.28,1.99-.04.18-.09.35-.15.53-.21.74-.41,1.43-.21,2.12.09.29-.02.55-.09.72-.02.04-.03.07-.04.11l-.18,1.19c-.19,1.24-.39,2.53-.55,3.79-.09.69-.16,1.38-.23,2.07-.07.72-.15,1.44-.24,2.15-.17,1.33-.33,2.77-.49,4.41-.02.2-.04.41-.07.61-.08.67-.15,1.3-.09,1.9.11,1.03.06,2.1-.13,3.17-.04.21-.05.44-.05.69-.02.59-.05,1.26-.47,1.89,0,.03,0,.05,0,.08,0,.2-.01.52-.2.82.1.07.2.15.29.26.61.8.41,1.59.27,2.17-.07.27-.13.52-.11.73.01.12,0,.34-.23.55-.06.05-.37.32-.74.25-.01,0-.03,0-.04,0-.01.04-.03.11-.05.23-.07.4-.2.76-.33,1.11-.22.62-.42,1.15-.2,1.72.2.52-.04.99-.2,1.33l-.08.16c-.32.71-.7,1.39-1.07,2.04-.52.94-1.01,1.82-1.37,2.78-.29.79-1.08.73-1.38.71-.66-.05-1.07-.54-1.02-1.21,0-.12.02-.23.04-.35.03-.22.06-.42.02-.56-.28-1.18-.34-2.37-.39-3.53-.04-.92-.08-1.79-.23-2.65-.03-.17-.06-.34-.09-.52-.15-.82-.31-1.66-.14-2.56-.37-.91-.38-1.83-.4-2.73-.01-.64-.02-1.25-.16-1.83-.04-.15-.08-.31-.13-.47-.15-.51-.32-1.08-.24-1.71.1-.78-.02-1.55-.14-2.37-.06-.43-.13-.88-.17-1.33-.19-2.44-.61-4.85-1-6.89-.09-.49-.18-.98-.26-1.48-.22-1.35-.44-2.63-.89-3.86-.21-.58-.33-1.17-.44-1.75-.15-.78-.3-1.52-.67-2.18-.16-.28-.22-.58-.27-.84-.08-.41-.13-.58-.32-.68l-.42-.24.15-.46c.08-.24-.01-.46-.2-.84-.13-.27-.28-.58-.33-.94-.1-.71-.45-1.35-.83-2.03-.3-.55-.61-1.11-.81-1.75-.04-.12-.07-.25-.11-.38-.12-.44-.24-.85-.45-1.12-.7-.9-1.18-1.92-1.44-3.03-.24-1.04-.79-1.55-1.85-1.73-2.09-.34-4.18-.78-6.21-1.32-.29-.08-.61-.08-.95-.08-.34,0-.68,0-1.04-.07-.6.39-1.25.42-1.83.44-.3.01-.59.02-.84.08-.14.03-.27.06-.41.09-.49.11-.92.2-1.26.47l-.24.19-.3-.09c-.57-.17-1.12-.01-1.76.17-.46.13-.94.27-1.47.29-.84.03-1.5.14-2.07.34-.26.09-.36.17-.51.54-.14.33-.23.69-.31,1.06-.06.27-.13.55-.22.82-.34,1.04-.63,2.12-.91,3.17-.43,1.6-.88,3.25-1.5,4.83-.14.36-.26.72-.38,1.09-.22.66-.45,1.35-.78,1.98-.27.51-.52,1.05-.77,1.58-.18.39-.36.77-.55,1.15-.42.85-.86,1.73-1.03,2.66,0,.02,0,.03,0,.05.15.15.25.32.27.51.06.37-.16.65-.28.79-.02.02-.04.05-.05.07-.21.34-.52.47-.79.53.01.05.02.12.03.14.27.26.35.67.18,1-.11.22-.31.37-.55.42.14.5-.08.91-.2,1.15-.21.42-.24.84-.07,1.38.02.07.05.15.08.22.12.31.29.73.11,1.21-.22.56-.19,1.18-.15,1.84.02.3.03.6.02.9-.02.74-.35,1.05-.68,1.21.05.19.09.38.11.58.16.07.33.21.42.54.14.51.18,1.29-.15,1.84-.45.74-.62,1.57-.55,2.78.03.49-.25,1.07-.83,1.27.02.09.09.19.22.35.12.14.25.3.35.51.02.04.05.08.07.13.37.61.32,1.1-.15,1.45-.19.14-.22.16.01.68.23.51.38,1.09-.06,1.9-.28.51-.35.9-.22,1.22.18.45.15.9.12,1.29-.04.48-.05.76.16,1,.22.26.16.58.14.73-.15.82-.17,1.65-.19,2.52-.02.87-.03,1.76-.2,2.66-.01.06-.02.13-.04.19-.02.07-.04.18-.04.22.2,1.29-.05,2.51-.3,3.68-.07.33-.14.65-.19.98-.11.64-.32,1.16-.64,1.59-.22.3-.46.4-.66.42l.04.12c.09.24.19.52.22.86.05.6.07,1.2.08,1.78.03.9.05,1.75.18,2.6,0,.04.03.09.04.13.08.22.27.75-.15,1.18-.08.08-.09.09.08.41l.06.12c.45.9.69,1.77.75,2.64.05.69.1,1.61.08,2.56-.04,1.79.02,3.7.19,5.85.1,1.28.09,2.56.07,3.8-.01,1.28-.03,2.61.09,3.9.05.5.07,1.01.09,1.51.05,1.05.09,2.05.34,3.03.13.51.2,1.03.27,1.54.06.42.12.86.21,1.28.2.89.3,1.8.41,2.68.08.67.16,1.37.28,2.04.16.87.15.88.84.87h.03c1.36,0,2.73.11,4.04.22.75.06,1.49.12,2.24.16.34.02.68.01,1.04,0,.79-.01,1.62-.03,2.45.24.04.01.09.03.31-.16.65-.56.92-1.37,1.2-2.22.08-.25.16-.49.25-.73.12-.31.22-.64.32-.97.16-.52.32-1.05.55-1.55.1-.21.12-.48.15-.77.05-.53.12-1.23.71-1.75.14-.88.47-1.67.78-2.44.32-.78.62-1.51.73-2.29.14-1.02.33-2.01,1.09-2.83.05-.75.35-1.37.65-1.96.22-.46.43-.89.52-1.35.08-.42.25-.83.42-1.23.12-.28.24-.57.32-.84.11-.38.25-.73.39-1.07.12-.31.24-.6.33-.89.17-.55.35-1.09.53-1.63.6-1.81,1.16-3.52,1.34-5.35.04-.41.24-.79.39-1.04.02-.04.04-.08.06-.13.1-.24.34-.79,1.07-.81h.04c.6,0,1.08.32,1.37.9.6,1.21,1.35,2.42,2.34,3.8,1.29,1.78,1.54,3.74.73,5.66-.67,1.6-1.15,3.34-1.46,5.31-.04.26-.12.51-.19.75-.11.36-.21.7-.14.92.18.53.1,1.03.02,1.47-.08.53-.12.81.11,1.08l.23.27-.14.33c-.23.56-.12,1.13.01,1.79.07.37.15.76.17,1.17v.13c.03.6.05,1.16.17,1.68l.03.13c.26,1.07.51,2.09,1.27,2.77,1.03.93,2.37,1.47,3.66,2l.61.25c.75.31,1.54.51,2.39.72.51.13,1.04.26,1.56.42.68.21,1.5,0,2.05-.19.21-.07.32-.34.48-.77.05-.13.09-.26.15-.38.54-1.26,1.1-2.62,1.55-4.06.35-1.09.8-2.15,1.24-3.17.47-1.08.95-2.2,1.29-3.34.25-.85.57-1.72.93-2.58.13-.3.26-.6.39-.9.41-.95.84-1.94,1.16-2.94.26-.83.61-1.64.94-2.41.4-.93.77-1.8,1.03-2.74.16-.57.4-1.08.64-1.57.22-.45.42-.88.55-1.32.46-1.64.94-2.89,1.51-3.93.21-.39.37-.83.54-1.28.34-.93.73-1.97,1.66-2.83l.88-.81.1,1.19c.08.96.22,1.9.35,2.81.18,1.25.35,2.43.4,3.67,0,.18-.02.34-.05.48-.01.07-.03.18-.03.21.43,1.34.47,2.73.5,4.06.02.62.03,1.25.09,1.87.07.72.09,1.46.12,2.17.02.7.05,1.42.11,2.12.07.75.15,1.58-.38,2.36-.3.45-.24.93-.11,1.68l.02.1c.01.09.05.17.07.26l.04.12c.14.46.16.9.18,1.33.02.42.04.81.17,1.15l.12.32-.21.27c-.31.39-.21.77,0,1.4.07.22.13.43.18.65.15.76,0,1.3-.56,1.88-.1.1-.17.18-.22.24.04.04.1.09.18.16.76.63,1.23,1.62,1.33,2.8.05.58.06,1.16.07,1.73.01.52.02,1.05.06,1.57q.08,1.08.92,1.17c2.34.25,4.16.24,5.9-.04,1.07-.17,2.16-.24,3.22-.3.85-.05,1.72-.1,2.57-.21.92-.12.93-.14,1.04-.79.1-.53.19-1.06.28-1.59.21-1.21.42-2.46.68-3.68.46-2.23.89-4.55,1.31-7.07.1-.61.26-1.19.42-1.76.25-.91.49-1.77.49-2.69,0-.81.17-1.78.46-2.71.23-.75.34-1.52.45-2.34.11-.78.22-1.6.45-2.4.09-.32.13-.69.16-1.07.03-.35.06-.72.15-1.07.15-.64.23-1.28.31-1.97.12-.99.24-2.02.61-3.01.24-.65.25-1.33.27-2.06.01-.49.02-.99.1-1.51.1-.64.24-1.27.38-1.88.26-1.13.5-2.2.5-3.31,0-1.09.21-2.18.42-3.11.26-1.19.28-2.4.3-3.68.01-.83.02-1.7.11-2.55.22-2.12.44-4.32.39-6.53-.02-.97.09-1.72.33-2.3.21-.5.23-.97.19-1.58-.09-1.59-.18-3.17.18-4.77.07-.29.01-.8,0-.96-.06-.5-.13-.99-.2-1.49Z"/>
    <path class="cls-2" d="M322.85,501.04s-.03-.02-.05-.03l-.09-.06c-.2-.13-.53-.35-.56-.77-.01-.2.04-.39.17-.57-.01-.03-.03-.07-.04-.1-.08-.3-.17-.61-.26-.91-.26-.89-.54-1.81-.62-2.81-.02-.22-.02-.45-.03-.69-.01-.55-.02-1.06-.23-1.43-.28-.49-.3-.98-.32-1.41-.02-.4-.04-.65-.18-.86l-.13-.18.02-.22c.1-1.13-.05-2.25-.21-3.43-.11-.8-.22-1.63-.24-2.47-.03-1.08-.2-2.14-.37-3.27-.15-.96-.3-1.95-.36-2.96-.06-1.01-.22-2.03-.37-3.03-.14-.9-.28-1.84-.36-2.77-.19-2.38-.47-5.51-.87-8.61-.1-.77-.2-1.78-.14-2.78.14-2.22.31-4.48.47-6.66.07-.9.14-1.8.2-2.7.06-.88.13-1.77.19-2.65.14-1.98.28-4.04.46-6.05v-.07c.05-.47.1-1,0-1.11-.07-.08-.36-.2-1.36-.26l-.21-.02c-.17-.02-.35-.03-.46,0-1.15.29-2.31.39-3.44.49-.94.08-1.91.17-2.83.36-.93.2-1.46.52-1.86,1.16-.57.9-1.41,1.65-2.64,2.36l-.05.03c-.4.23-1.24.72-1.99.04-.89-.8-1.79-1.72-2.38-2.99-.45-.97-1.01-1.51-1.82-1.76-.23-.07-.49-.08-.76-.09-.34-.02-.72-.03-1.12-.17-.55-.19-1.14-.28-1.77-.37l-.36-.05c-.67-.1-1.34-.2-2.01-.29-1.15-.16-2.34-.32-3.5-.54-1.87-.35-3.53-.36-5.06-.03-.65.14-1.19.24-1.76.27-1.37.08-2.76.3-4.1.52-1.12.18-2.27.37-3.42.47-.7.06-1.38.2-2.1.35-.89.18-1.82.36-2.77.4-1.28.05-2.23.43-2.81,1.15-.6.73-1.3,1.33-1.97,1.92-.7.61-1.36,1.18-1.91,1.87-.24.31-.54.56-.79.77-1.19.96-2.3,2.08-3.38,3.15-.31.31-.46.63-.47,1-.02.6-.14,1.17-.26,1.71-.16.72-.31,1.41-.2,2.09l.04.23-.13.19c-.34.51-.37,1.11-.4,1.81-.02.46-.04.95-.17,1.43-.21.81-.29,1.7-.38,2.57-.03.32-.06.63-.1.94-.06.51-.15,1.02-.24,1.51-.12.66-.23,1.28-.27,1.9-.03.53-.16,1.02-.27,1.49-.16.63-.31,1.23-.22,1.84.05.37-.06.7-.17.99-.06.18-.14.38-.11.49.17.77.02,1.45-.17,2.08-.29.95-.24,1.77.16,2.59.28.58.4,1.25.47,1.82.02.14.1.28.21.46.16.25.35.57.4,1.01.04.32.14.66.24,1.01.11.38.22.78.29,1.21.06.44.21.87.37,1.33.25.74.51,1.51.46,2.39.08.08.2.21.26.39.05.13.17.27.31.43.23.26.52.59.6,1.09.11.74.3,1.51.64,2.48.09.26.2.52.32.78.38.86.8,1.85.54,3,0,.06.09.25.14.35l.12.22c.17.32.54.98.11,1.6.15.2.23.41.3.58.08.21.14.34.22.39.31.19.4.43.43.6.05.39-.2.67-.31.78-.02.02-.04.04-.05.06.22.04.42.13.58.27.28.24.42.61.4,1.03-.01.3.14.66.25.83.56.81.96,1.77,1.14,2.77.25,1.33.91,2.04,2.16,2.29.81.16,1.87.4,2.91.82.89.35,1.93.75,2.98.97.47.1.91.26,1.33.42.28.11.57.21.86.3,1.4.4,2.8.85,4.15,1.28,1.01.33,2.02.65,3.04.96l.14.04c.87.26,1.76.53,2.54.27,1.19-.4,2.43-.65,3.61-.88.87-.17,1.77-.35,2.63-.59,1.2-.33,2.41-.6,3.6-.79,1.75-.28,3.2-.55,4.54-1.25.14-.07.56-.29,1-.11.27.11.46.34.57.68l.02.06c.11.33.23.71.21,1.2-.04.73-.12,1.45-.21,2.15-.14,1.15-.27,2.23-.2,3.34v.09s-.01.09-.01.09c-.18.77-.28,1.53-.4,2.35-.18,1.33-.37,2.71-.91,4.06-.47,1.18-.8,2.47-1.11,3.71-.15.59-.3,1.18-.46,1.76-.36,1.28-.58,1.46-1.83,1.53h-.06c-.42.03-.84.04-1.27.05-1.38.04-2.68.09-3.97.43-.33.09-.64-.07-.75-.12-.25-.12-.52-.08-.93,0-.77.15-1.39-.04-1.87-.56-.11-.11-.3-.21-.51-.31-.13-.07-.26-.13-.39-.21-.55-.32-.94-.76-1.33-1.19-.26-.28-.5-.55-.77-.77-.32-.25-.65-1.06-.43-1.6.06-.14.03-.26-.05-.52l-.05-.17c-.16-.62-.22-1.23-.27-1.82-.02-.29-.05-.58-.09-.88-.03-.24-.05-.49-.07-.73-.03-.42-.06-.82-.17-1.19q-.24-.81-.79-.91c-1.46-.25-2.97-.36-4.44-.47-.98-.07-1.98-.15-2.98-.26-.34-.04-.67-.08-1.01-.12-1.41-.17-2.88-.36-4.3-.34-.29-.01-.57-.02-.86-.03-1.29-.08-2.05-.07-2.57.98-.07.15-.18.23-.26.27l-.75.75c-.75.75-1.49,1.5-2.23,2.25-.24.25-.79.9-.61,1.48.12.39.16.77.2,1.13.04.31.07.59.14.86.06.2.12.4.18.6.19.6.39,1.22.41,1.84.03.92.24,1.8.47,2.73.23.94.46,1.9.5,2.93.02.63.17,1.26.33,1.93.2.83.4,1.69.37,2.61,0,.22.08.49.18.77.04.11.08.23.11.34.08.26.21.39.26.4.42.09.77.26,1.11.42.25.12.49.23.73.3,1.58.46,3.14,1.04,4.65,1.6l.61.23c.99.37,1.9.71,2.9.6.12-.01.27-.06.43-.11.37-.12.84-.27,1.27-.03.14.08.3.08.57.08.3,0,.69,0,1.06.21.18.1.4.1.73.08.26-.02.56-.03.87.03.65.13,1.31.19,2.01.25.31.03.63.05.94.09.38.04.76.03,1.18.02.53-.01,1.08-.02,1.63.08,1.51.28,2.94.55,4.42.47.68-.03,1.32.09,1.93.2.46.09.9.17,1.33.18.17.01.35-.03.54-.06.51-.09,1.19-.2,1.82.3.22-.02.43-.04.64-.04.73,0,1.43.13,2.12.26.55.1,1.07.2,1.59.23.27.02.54.05.81.08.78.1,1.46.18,2.01-.18.31-.21.63-.4.96-.58.69-.4,1.33-.78,1.89-1.33,1.7-1.67,3.09-3.24,4.23-4.8.67-.92,1.37-1.83,2.05-2.71.91-1.18,1.85-2.4,2.72-3.64.22-.31.44-.61.67-.91.76-1.02,1.48-1.98,1.79-3.19.05-.19.06-.4.07-.63.02-.33.04-.7.18-1.06.25-.64.41-1.31.58-2.01.07-.3.14-.6.22-.89l.17-.65c.29-1.14.6-2.33,1.08-3.46.23-.53.32-1.09.39-1.81.02-.2.03-.39.04-.6.03-.7.07-1.49.48-2.22.02-.04.04-.09.06-.14.07-.18.17-.44.38-.63-.06-.13-.1-.29-.1-.5l-.25-.07v-.48c.02-.23.18-.44.37-.61-.17-.31-.09-.62-.04-.81,0-.03.02-.07.02-.1.01-.2.03-.41.05-.62.02-.27.05-.54.06-.81.03-.76.13-1.41.5-2.09.35-.64.67-1.36.66-2.24,0-.23-.06-.5-.13-.77-.12-.5-.26-1.09-.07-1.72Z"/>
    <path class="cls-2" d="M256.03,534.23c-.22-.46-.29-.95-.36-1.42-.04-.28-.08-.54-.14-.78-.06-.22-.13-.44-.2-.67-.14-.48-.29-.97-.39-1.46-.05-.25-.09-.51-.13-.77-.07-.44-.14-.85-.25-1.26-.31-1.13-.56-2.29-.81-3.41-.31-1.42-.63-2.89-1.07-4.29-.1-.32-.16-.65-.23-.96l-.04-.18c-.35-1.71-.77-3.71-1.33-5.63l-.16-.53c-.34-1.14-.69-2.32-.84-3.53-.13-1.02-.37-2.05-.6-3.05-.13-.56-.26-1.11-.37-1.67-.15-.75-.35-1.52-.55-2.27-.19-.74-.4-1.5-.55-2.27-.04-.18-.13-.36-.23-.56-.16-.3-.33-.64-.35-1.06-.02-.64-.14-1.26-.25-1.92-.09-.53-.19-1.07-.24-1.63-.02-.22-.12-.48-.22-.75-.16-.42-.35-.91-.27-1.42.04-.25-.06-.52-.16-.84-.14-.42-.31-.92-.17-1.49-.17-.39-.18-.78-.18-1.11,0-.18,0-.35-.03-.47-.03-.12-.11-.45.05-.76-.46-.39-.51-.82-.22-1.72.01-.04.02-.09.01-.14-.07,0-.14,0-.22-.01-.95-.2-.91-1.04-.89-1.35,0-.07,0-.17,0-.22-.2-.16-.3-.41-.27-.67.02-.2.11-.39.26-.55-.16-.14-.3-.33-.3-.58,0-.16.05-.31.15-.43h-.01c-.24-.18-.55-.4-.6-.8-.03-.22.03-.41.1-.56-.43-.62-.52-1.32-.61-1.94-.08-.56-.15-1.09-.45-1.53-.52-.76-.71-1.68-.88-2.57-.06-.29-.12-.58-.19-.86-.26-1.07-.54-2.22-.77-3.37-.2-1.01-.48-2.02-.75-3-.12-.44-.24-.89-.36-1.33-.04-.14-.06-.28-.07-.42-.02-.16-.04-.34-.1-.4-.51-.6-.86-1.27-1.2-1.92-.19-.36-.37-.71-.57-1.04-.6-.96-1.12-1.97-1.63-2.95-.33-.63-.65-1.26-1-1.87-.24-.42-.47-.84-.71-1.26-.74-1.31-1.51-2.65-2.19-4.03-.5-1.02-1.08-2.04-1.64-3.03-.4-.7-.79-1.41-1.17-2.12-.35-.66-.77-.96-1.43-1.02-.52-.05-1.04-.11-1.56-.18-.85-.11-1.65-.21-2.46-.23-.7-.01-1.38-.12-2.04-.22-.79-.12-1.54-.23-2.31-.2-1.82.08-3.66,0-5.43-.07-.63-.02-1.26-.05-1.88-.07-.33,0-.39,0-.5.35-.11.33-.11.71-.1,1.11,0,.56,0,1.18-.29,1.79.15.83.01,1.61-.13,2.37-.1.57-.2,1.12-.16,1.65.03.53-.07,1.14-.3,1.72-.18.47-.32,1.04-.44,1.8-.19,1.21-.5,2.41-.8,3.56l-.1.38c-.13.49-.27.97-.42,1.46-.18.59-.36,1.2-.5,1.79-.34,1.46-.83,2.88-1.31,4.24l-.09.27c-.14.39-.3.75-.47,1.1-.16.34-.31.67-.43,1-.09.25-.17.51-.25.77-.2.63-.4,1.28-.71,1.88-.37.73-.65,1.53-.91,2.3-.1.3-.21.6-.32.9-.37,1-.76,1.99-1.15,2.99-.21.54-.42,1.08-.63,1.62l-.34.89c-.44,1.14-.9,2.31-1.3,3.48l-.19.56c-.36,1.06-.74,2.15-1.2,3.2l-.19.43c-.59,1.34-1.14,2.6-1.44,3.98-.04.17-.06.35-.09.52-.06.38-.12.78-.27,1.14-.25.58-.38,1.19-.52,1.83-.12.55-.25,1.12-.45,1.68-.22.59-.38,1.2-.56,1.83-.17.6-.34,1.21-.55,1.82-.27.77-.44,1.63-.58,2.44-.11.64-.25,1.18-.56,1.7.14.17.2.34.22.47.08.46-.19.82-.33,1.01l-.04.06c-.27.4-.37.81-.36,1.4v.11c.01.37.04,1.05-.58,1.48,0,.03-.01.08-.01.14.02.62-.16,1.15-.34,1.67-.18.53-.34.98-.26,1.45.04.27-.08.48-.14.6-.24.54-.4,1.06-.56,1.62-.1.32-.19.64-.3.96-.19.57-.3,1.16-.41,1.78-.14.82-.29,1.66-.66,2.5-.38.86-.58,1.87-.78,2.84-.05.27-.11.54-.17.8-.19.87-.43,1.73-.67,2.56-.25.88-.51,1.8-.7,2.71-.31,1.52-.71,3.04-1.09,4.51-.14.54-.28,1.09-.42,1.63-.16.65.04,1,.67,1.17,1.74.47,3.56.44,4.95.37,1.61-.09,3.74-.16,5.88.02,1.38.11,2.41-.17,3.36-.93.17-.14.36-.2.5-.24.01,0,.03,0,.04-.01.09-.35.25-.65.38-.92.11-.2.2-.4.25-.56.13-.46.29-.92.45-1.35.13-.36.26-.73.37-1.09.25-.85.6-1.68.94-2.47.3-.71.61-1.44.85-2.17.22-.69.49-1.37.74-2.02.3-.77.62-1.57.85-2.37.3-1.05.74-2.04,1.16-3.01.4-.9.8-1.83,1.1-2.8l.21-.69.63.34c.67.36,1.38.27,2.13.17.13-.02.27-.03.4-.05.34-.04.62.05.82.12.2.07.28.09.41.05.92-.27,1.88-.32,2.8-.37.36-.02.72-.04,1.08-.07.86-.08,1.73-.03,2.57.02.62.04,1.26.07,1.88.05.85-.02,1.7,0,2.53.01.44.01.89.02,1.33.02.26,0,.55,0,.83-.02,1.02-.04,2.17-.09,3.23.53.93-.6,1.85-.37,2.59-.19.28.07.55.14.81.16.31.03.7.18.81.77h0c.38.58.48,1.25.52,1.77.02.26.18.46.44.78.23.28.49.59.63,1.02.07.23.18.48.28.7.11.23.26.46.41.69.31.48.66,1.02.79,1.72.17.9.54,1.75.94,2.64.38.85.77,1.72.98,2.68.17.77.48,1.51.81,2.3l.21.5c.42,1.02.81,2.08,1.15,3.14.12.36.32.53.75.61l.55.11c.64.12,1.28.25,1.92.35.15.03.3.05.46.08.82.16,1.54.29,2.19-.14.28-.18.61-.12.83-.05.58.21,1.21.12,1.87.04.16-.02.33-.04.49-.06,1.07-.11,2.15-.32,3.2-.51.37-.07.74-.14,1.11-.2.11-.02.24-.07.39-.13.31-.13.68-.28,1.18-.22.07-.07.14-.26.11-.36-.07-.26-.11-.53-.16-.8-.07-.42-.13-.81-.31-1.17ZM229.35,496.08c.17.47.07.98-.01,1.25h0c-.13.43-.16.88-.2,1.36-.03.45-.07.91-.18,1.38-.08.32-.22.91-.9,1.08-.12.03-.24.07-.36.11-.34.1-.73.22-1.15.22-.26,0-.52-.04-.8-.16-.17-.07-.37-.04-.69,0-.22.04-.46.08-.73.07-.52-.02-1.02-.09-1.51-.16-.66-.1-1.29-.18-1.91-.15-.34.02-1.06.06-1.45-.48-.14-.2-.29-.21-.81-.09-.09.02-.17.04-.24.05-.5.09-.94.09-1.48-.22l-.07-.04s-.12-.07-.17-.1c-.65.18-1.31-.03-1.61-.53-.26-.42-.36-.89-.47-1.34-.03-.12-.06-.24-.09-.36-.1-.38.17-.63.29-.74.06-.07.11-.12.14-.16-.03-.02-.06-.04-.1-.07-.03-.02-.05-.03-.08-.05-.17-.1-.49-.28-.56-.67-.07-.43.23-.76.33-.87.19-.21.29-.63.23-.95-.14-.75.11-1.33.34-1.84l.08-.19c.24-.57.48-1.13.72-1.7.67-1.59,1.36-3.22,2.13-4.8.15-.3.27-.6.4-.91.25-.62.52-1.26.94-1.85.25-.35.37-.78.33-1.18-.04-.42-.09-.89.1-1.37l1.8-4.73.55.21c.52.2,1.47.57,1.62,1.67,1.04,1.19,1.43,2.61,1.82,3.99.12.41.23.83.37,1.24.73,2.23,1.47,4.46,2.23,6.68l.04.11c.07.19.14.39.16.65q.12,1.38.88,2.91l.13.27c.15.3.06.61-.02.91-.04.14-.08.29-.08.39v.14c-.02.39-.03.7.08,1.01Z"/>
    <path class="cls-2" d="M193.78,466.96c.97.02,1.97.04,2.95.13.01,0,.03,0,.04,0,.02-.04.04-.09.06-.14.36-.89.66-1.84.94-3.01.16-.65.31-1.3.46-1.95.22-.96.45-1.92.68-2.87l.21-.83c.34-1.36.69-2.76.96-4.16.39-1.95.86-3.66,1.44-5.23.08-.21.01-.41-.08-.53-.05-.07-.16-.17-.32-.18-.63.02-1.24-.06-1.82-.15-.5-.07-.97-.14-1.43-.14-1.5,0-2.7-.24-3.78-.75-.33-.16-.71-.17-1.03-.04-.49.2-.9.16-1.23-.14-.04.06-.08.11-.13.15l-.22.19-.29-.06c-.08-.02-.17.03-.37.13-.24.13-.57.31-.98.28-.31-.01-.57-.13-.77-.26-.41.66-1.04,1.15-2.2,1.09,0,.13-.05.27-.15.4-.21.26-.51.29-.72.27-.13.28-.31.47-.55.57-.25.1-.53.09-.82-.03-.26.36-.61.58-.9.76-.26.16-.49.3-.59.5-.39.72-1.01,1.19-1.55,1.6-.11.08-.22.16-.32.25-.75.59-1.37,1.09-1.9,1.71-.74.85-1.17,1.88-1.64,2.96-.19.45-.4.92-.62,1.38l-.18.37-.41-.04c-.86-.09-1.36-.8-1.26-1.81.08-.78,0-1.56-.09-2.38-.06-.63-.13-1.28-.12-1.94,0-.56-.05-1.12-.18-1.65-.01-.05-.02-.1-.04-.14-1.52-.52-3.01-.99-4.61-1.01-1.4-.02-3.03-.1-4.49-.6-.56-.19-1.12-.17-1.72-.15-.37.01-.76.02-1.14,0-.29-.03-.38,0-.41.02,0,0,0,.04,0,.13,0,.24-.11.47-.32.65-.33.28-.83.42-1.29.34h-.09c-.24-.06-.48-.1-.72-.14-.2.4-.45.56-1.13.93l-.07.04s-.03.02-.05.03c-.13.53-.33,1.15-.97,1.5,0,.04,0,.09.01.12.03.22.08.65-.2.99.02.32-.03.63-.08.91-.07.43-.11.7,0,.96.17.37.26.74.36,1.1.06.24.12.47.19.67.43,1.14.48,2.28.53,3.38.02.45.04.88.08,1.3.06.61.08,1.24.09,1.84.02.66.04,1.33.11,1.98.15,1.27.23,2.55.3,3.8.06,1.01.12,2.06.22,3.07.08.76.07,1.53.07,2.27,0,.71,0,1.44.07,2.14.01.14.04.29.07.44.06.32.13.66.08.99-.29,2.19-.02,4.41.24,6.56.04.36.09.73.13,1.09.03.3-.02.56-.07.79-.06.29-.07.41-.01.53.48.94.13,1.97.01,2.26-.14.34-.09.55.06.91.32.8.62,1.65.48,2.43-.09.48-.02.98.05,1.51.09.67.19,1.43-.05,2.21.39,1.94.36,3.89.33,5.62-.02,1.17.08,2.38.18,3.54.14,1.71.29,3.49.07,5.26-.04.33,0,.67.03,1.03.04.48.09.98-.02,1.52-.06.31-.14.62-.22.93-.25,1.01-.49,1.97-.26,2.95.04.16,0,.3-.03.38-.05.47-.09.95-.14,1.43-.11,1.09-.22,2.22-.35,3.33-.06.53-.02,1.06.03,1.63.06.66.12,1.34,0,2.05.03.04.1.12.24.21.47.3,1.03.44,1.61.58.26.06.51.13.76.2.21.06.42.13.63.2,1.08.34,2.1.67,3.17.6,1.33-.09,2.68-.11,3.99-.13h.71c.13-.01.36-.02.61.06l.1-.25.44.03c.16.01.33.03.49.05.35.04.71.08,1.05.06.15,0,.31-.03.46-.05.58-.07,1.29-.16,1.95.32.35-.38.81-.47,1.14-.54.18-.04.35-.07.46-.14.32-.21.44-.37.47-.43-.16-.76-.01-1.46.12-2.07.06-.27.11-.52.14-.77-.28-.56-.07-.91.15-1.12.43-.4.32-.72-.09-1.52l-.07-.13c-.21-.43-.32-.86-.33-1.34v-.23c-.01-.85-.03-1.73.06-2.61.01-.12-.03-.25-.08-.41-.07-.25-.16-.57-.09-.93.27-1.45.3-2.76.1-4-.1-.58-.19-1.34-.08-1.99.18-1.04.09-2.07,0-3.16-.07-.77-.14-1.57-.1-2.37,0,0-.01-.02-.02-.02-.1-.16-.4-.64.02-1.17.21-.26.15-.59.03-1.1-.02-.1-.04-.2-.06-.29-.08-.39-.09-.75-.11-1.1v-.27c-.05-.76.01-1.5.07-2.22.08-.9.15-1.74.03-2.59-.07-.52-.04-1.03-.02-1.53.02-.36.04-.7.02-1.03v-.22c-.1-1.67-.2-3.39-.4-5.06-.06-.48-.01-.94.03-1.38.05-.54.1-1.04-.06-1.46-.32-.81-.19-1.55-.08-2.21.07-.4.13-.78.09-1.14-.05-.44-.01-.88.02-1.3.04-.46.07-.9,0-1.31,0-.05-.02-.09-.03-.14-.06-.27-.15-.65.05-.98.24-.39.35-.86.46-1.35.07-.31.14-.63.26-.96.22-.63.57-1.12.92-1.6.27-.37.52-.73.69-1.12.34-.8.82-1.5,1.28-2.17.39-.57.76-1.1,1.04-1.69.19-.38.53-.55.79-.67.05-.02.1-.05.15-.07.56-.3,1.14-.56,1.7-.81.48-.21.93-.41,1.37-.64.87-.45,1.93-.88,3.2-.7,1.37.19,2.79.23,4.16.26Z"/>
    <path class="cls-2" d="M151,489.05s-.03-.03-.04-.05c-.52-.61-.27-1.02-.07-1.22.09-.09.11-.14.11-.14-.01-.01-.11-.14-.17-.22-.08-.11-.16-.21-.22-.33-.78-1.36-1.21-2.82-1.3-4.49v-.22c-.05-.69-.08-1.29-.45-1.87-.43-.69-.61-1.46-.78-2.21-.09-.4-.18-.77-.3-1.13-.17-.49-.18-.99-.2-1.48,0-.27-.02-.53-.05-.77-.15-1.07-.32-2.13-.49-3.2l-.21-1.36s-.01-.1-.02-.14c-.65-.34-1.09-.85-1.52-1.34-.29-.33-.56-.65-.88-.89-.12-.09-.24-.19-.35-.29-.32-.28-.45-.38-.68-.36-.41.04-.74-.15-.99-.56-.49-.81-1.03-1.27-1.74-1.48-.61-.18-1.11-.6-1.37-1.16-.25-.52-.27-1.11-.05-1.63.55-1.35,1.17-2.7,1.76-4,.22-.49.44-.97.66-1.46l.05-.1c.74-1.65,1.5-3.35,2.35-4.99.29-.56.64-1.21,1.06-1.82.37-.52.6-1,.73-1.51.17-.7.49-1.27.99-1.79.72-.74.95-1.08.53-1.67-.18-.25-.19-.57-.03-.82.17-.27.53-.43.88-.4,0-.14,0-.26-.03-.34-.11-.28-.18-.56-.25-.83-.15-.6-.26-.99-.62-1.24l-.3-.21.06-.36c.06-.36.02-.41-.56-.63-.25-.1-.54-.2-.78-.4-.13-.1-.22-.23-.28-.31l-.36-.47.36-.37c.17-.17.34-.35.41-.44-.03-.09-.13-.28-.23-.46-.15-.29-.25-.58-.34-.86l-.04-.12c-.14-.41-.69-.71-.86-.69l-.28.08c-1.24.35-2.31.66-2.89,1.75-.14.26-.34.37-.47.44-.02.01-.04.02-.05.03-.21.16-.41.33-.62.5-.45.37-.92.75-1.41,1.11-.25.19-.48.45-.71.73-.31.37-.66.79-1.15,1.09.03.14.04.31-.01.49-.13.42-.52.56-.75.65-.05.02-.1.04-.15.06-.16.09-.33.17-.49.25-.32.16-.63.31-.9.5-.78.53-1.43,1.19-2.12,1.9-.3.31-.6.61-.91.91-.34.33-.55.8-.59,1.32.16.11.43.32.43.69,0,.18-.06.33-.14.44.06.34.02.66-.02.93-.04.3-.07.49,0,.64.3.62.37,1.26.45,1.87.04.35.08.68.16.99.21.83.58,1.53,1.03,1.97.55.54,1.02,1.14,1.46,1.71.35.45.68.88,1.05,1.28.48.51.79,1.1,1.09,1.67.3.57.59,1.11,1.01,1.53.2.2.47.67.3,1.08-.12.29-.19.6-.28.93-.19.73-.4,1.56-1.07,2.23-.77.76-1.33,1.84-1.57,3.04-.23,1.11-.64,2.13-1.04,3.12-.25.62-.49,1.21-.69,1.83-.05.17-.14.3-.21.4-.03.04-.06.09-.07.12l-.04.59-.58-.07s0,0,0,0c-.01.05-.02.12-.02.16-.03.2-.07.55-.29.82.08.61-.09,1.15-.25,1.64-.1.31-.19.61-.21.89-.02.42-.16.77-.29,1.08-.03.07-.06.15-.09.22-.07.18-.15.36-.24.54-.23.49-.37.81-.28,1.16.25,1,.16,1.98.07,2.92-.09.89-.17,1.74.04,2.55l.07.27-.16.22c-.36.5-.37,1.1-.37,1.79,0,.28,0,.58-.03.87-.17,1.74-.28,3.53-.38,5.25-.07,1.23-.15,2.47-.24,3.7-.09,1.19-.27,2.39-.45,3.54l-.14.92c-.06.45-.1.93-.13,1.38-.04.56-.08,1.14-.18,1.69-.07.39-.15.78-.22,1.17-.32,1.59-.62,3.09-.28,4.64.03.13.07.31.01.52-.29,1.04-.31,2.11-.33,3.25-.02.82-.03,1.67-.16,2.52-.24,1.64-.29,3.35-.34,5.01-.02.55-.03,1.1-.05,1.65-.04.87-.06,1.74-.08,2.62-.03,1.03-.06,2.06-.11,3.09-.02.43-.03.86-.03,1.29-.02,1.05-.04,2.14-.22,3.21-.06.33-.04.67-.01,1.03.03.43.05.87-.04,1.35l-.04.22q-.23,1.16,1.17,1.45l.12.03s.06.02.08.02c.63.09,1.26.17,1.88.25,2.31.3,4.71.62,7.05,1.1.52.11,1.12.23,1.7.26.74.04,1.46-.02,2.23-.08.44-.04.87-.07,1.31-.09.55-.02,1.1-.08,1.64-.13.66-.07,1.35-.14,2.05-.15.42,0,.54-.08.58-.12.04-.04.11-.19.11-.66-.03-1.35,0-2.71.04-4.03.01-.49.02-.97.03-1.46,0-.07,0-.15,0-.22,0-.33-.01-.76.25-1.16-.15-.21-.18-.4-.16-.54,0-.07.02-.16.08-.26-.05-.06-.09-.12-.11-.17l-.49-.64.69-.29c.01-.06.02-.15.02-.21.02-.27.06-.83.54-1.13-.04-.36.17-.57.29-.65.13-.09.26-.13.38-.15,0-.04-.02-.09-.02-.14-.01-.33.2-.55.27-.62.07-.07-.07-.3-.14-.4-.73-1.09-.49-2.14-.28-3.06.09-.4.17-.77.18-1.12v-.29s.23-.17.23-.17c.35-.27.33-.55.19-1.23-.04-.21-.09-.42-.11-.63-.05-.64-.06-.97-.07-1.31,0-.27-.02-.56-.05-1.05-.03-.47.06-.9.14-1.27.07-.34.14-.64.11-.93-.1-.93.04-1.81.17-2.66.1-.6.19-1.17.2-1.75.01-1.02.31-1.94.6-2.84.19-.59.37-1.15.47-1.72.05-.32.03-.64,0-.98-.03-.32-.05-.65-.02-1l.07-.74c.11-1.12.21-2.27.27-3.4.03-.54.03-1.09.03-1.63,0-.76,0-1.54.08-2.32l.05-.5c.1-.98.19-1.99.34-2.98.05-.32.06-.64.07-.99.01-.42.03-.86.11-1.31.11-.62.07-1.3.03-2.02-.02-.37-.04-.74-.04-1.12Z"/>
    <path class="cls-2" d="M390.99,480.63c-.18-.35-.25-.71-.32-1.03-.02-.11-.04-.21-.06-.32-.07-.31-.13-.62-.18-.93-.09-.51-.17-.99-.33-1.39-.41-.98-.75-2.07-1.11-3.41-.25-.98-.52-1.95-.78-2.92-.48-1.78-.97-3.61-1.42-5.43-.08-.33-.19-.66-.3-1-.18-.54-.36-1.1-.44-1.69-.19-1.54-.6-3-1.14-4.74-.25-.79-.44-1.68-.61-2.79v-.05c-.02-.05-.02-.11-.04-.16-.51-.08-.67-.33-.72-.54-.04-.15-.02-.29.05-.43-.39-.16-.8-.48-.78-1.18-.01,0-.02-.01-.03-.02-.82-.39-1.37-1.01-1.9-1.61-.31-.34-.59-.67-.92-.93-.68-.57-1.31-1.2-1.91-1.82-.89-.9-1.72-1.75-2.74-2.41-.31-.2-.49-.51-.57-.68-.18-.39-.55-.63-.97-.91l-.32-.21c-.17-.08-.44-.21-.59-.56-.15-.36-.48-.67-.82-.98-.08-.07-.16-.15-.24-.22-.72-.69-1.34-1.15-2.17-1.3-.09-.02-.18.01-.34.06-.22.07-.52.16-.89.08-.72-.15-1.45-.12-2.24-.09-.68.02-1.38.05-2.09-.05-.59-.08-1.21-.06-1.85-.04-.88.03-1.79.06-2.71-.18-.04-.01-.11-.01-.15,0-.96.29-1.91.23-2.82.17l-.46-.02c-1.22-.06-2.51-.09-4.18-.11-.59,0-1.08.17-1.65.59-.36.25-.68.56-1.02.89-.58.55-1.18,1.12-1.99,1.48-.36.15-.82.38-1.15.72-.68.72-1.48,1.25-2.26,1.77-.35.24-.71.46-1.05.72-.44.32-.89.64-1.34.95-1.13.79-2.19,1.53-3.13,2.47-.35.35-.69.69-1.13.91-.76.38-1.39.92-2.07,1.51-.24.21-.48.41-.72.61-.41.33-.64.82-.78,1.64,0,.03,0,.06.01.1.02.15.05.37-.02.63-.58,1.84-.96,3.77-1.32,5.64-.08.42-.16.83-.25,1.25-.04.16-.06.32-.09.48-.08.49-.17,1-.38,1.52-.55,1.38-1.11,2.86-1.28,4.45-.06.52-.33.88-.81,1.07.26.44.22.91-.08,1.19v.09c0,.21-.04.56-.34.85.15.23.33.51.34.85,0,.33-.15.55-.24.69-.02.02-.04.05-.05.08l-.06.13c-.06.14-.2.44-.17.52.38,1-.09,1.77-.44,2.34l-.06.09c-.04.06-.09.14-.1.17.37.88.31,1.79.25,2.68-.05.78-.1,1.51.16,2.18l.09.24-.11.23c-.09.2-.05.46,0,.77.05.36.12.78-.04,1.2-.11.29-.05.51.09.89.08.22.16.48.19.76.11.93.14,1.87.18,2.77.03.62.05,1.24.09,1.86.04.48.08.96.12,1.45.11,1.26.22,2.57.22,3.85,0,1.32.16,2.65.32,3.94l.09.72c.17,1.4.53,2.82.88,4.19.09.35.18.69.26,1.04.56,2.28.95,4.6,1.27,6.59.15.91.36,1.84.57,2.73l.16.68c.19.83.36,1.67.54,2.5l.19.94c.54,2.57,1.03,5.14,1.52,7.77.15.8.64,1.4,1.5,1.84.64.32,1.25.69,1.84,1.05.35.21.71.42,1.07.63.55.31,1.08.64,1.62.96.77.48,1.57.96,2.38,1.38.59.3,1.17.62,1.73.94.87.49,1.78,1.01,2.71,1.41l.98.41c.77.32,1.54.65,2.31.99.3.14.67.1,1.09.06l.23-.02c.43-.03.85-.07,1.28-.11.97-.09,1.97-.19,2.97-.18.94,0,1.89-.05,2.82-.11.88-.05,1.79-.11,2.7-.11.6,0,1.19-.07,1.83-.15.94-.12,1.92-.24,2.93-.11,1.15-.25,2.3-.28,3.42-.31.52-.02,1.05-.03,1.57-.06.86-.06,1.72-.1,2.59-.14.75-.03,1.49-.06,2.24-.11.35-.02.54-.11.58-.14.65-.71,1.28-1.48,1.89-2.22l.32-.4c.27-.33.51-.68.77-1.05.39-.57.8-1.16,1.32-1.68.07-.08.15-.15.24-.22.13-.11.25-.21.3-.31.34-.58.76-1.08,1.17-1.56.29-.35.58-.68.82-1.03.51-.75,1.06-1.48,1.6-2.19l.22-.29c.35-.45.69-.9,1.05-1.35.65-.82,1.32-1.68,1.92-2.57.54-.81.82-1.38.86-2.31.11-2.47.26-4.98.41-7.41.06-.92.12-1.85.17-2.77,0,0-.02-.04-.03-.07-.06-.18-.21-.61.11-1.01-.02-.04-.05-.08-.07-.12-.42-.69-1.14-.99-1.88-.82-.2.04-.41.07-.61.1-.39.05-.72.09-1.01.25-.42.24-.87.23-1.22.24-.27,0-.5,0-.68.08-.39.19-.81.2-1.18.21-.11,0-.23,0-.34.01l-.69.05c-1.55.12-3.17.25-4.76.24-.41,0-.83.13-1.22.35-.39.22-.73.54-.97.91-.33.51-.7.98-1.05,1.43-.34.44-.66.85-.95,1.28-.15.22-.28.45-.42.69-.34.57-.69,1.17-1.16,1.63-.85.82-1.49,1.77-2.18,2.78-.31.46-.62.91-.94,1.35-1.22,1.64-2.01,2.14-4.05,1.69-1.16-.26-2.05-.35-2.94-.04-.19.06-.36.09-.62.02-.41-.11-.83-.21-1.25-.3-.41-.09-.82-.18-1.22-.29-.39-.1-.65-.14-.97-.02-.72.25-1.46.05-2.03-.56-.36-.39-.55-.84-.72-1.24-.12-.29-.24-.57-.41-.77-.41-.51-.61-1.08-.78-1.59-.15-.46-.29-.89-.58-1.22l-.14-.15v-.21c-.07-1.14-.58-2.14-1.12-3.21-.11-.22-.22-.44-.34-.67-.38-.79-.71-1.61-1.04-2.39-.15-.36-.29-.72-.45-1.08-.15-.36-.29-.74-.43-1.11-.21-.56-.4-1.09-.65-1.58-.48-.96-.49-1.91-.52-2.82,0-.17,0-.35-.01-.52-.03-.68.02-1.34.08-1.99.06-.88.13-1.71,0-2.52-.14-.89-.09-1.76-.04-2.6.01-.3.03-.61.04-.9.02-.71.02-1.42.02-2.13,0-1.05,0-2.14.06-3.22.06-1.18.05-2.39.05-3.56-.01-1-.02-2.03.02-3.05.07-2.07.07-4.21,0-6.56-.05-1.5.4-2.81.83-4.08.12-.35.24-.71.35-1.07.18-.59.42-1.25.86-1.65.32-.29.57-.59.83-1l.05-.08c.18-.29.46-.75.99-.84.15-.03.31-.02.47.02-.02-.12-.02-.24,0-.36,0-.05,0-.09.01-.14.02-.31.07-1.14,1.25-1.18.28-.01.55.04.8.08.42.07.69.11.94-.03.66-.38,1.42-.39,2.21-.05l.04.02c.54-.46,1.19-.5,1.69-.52.11,0,.21-.01.31-.02.17-.01.39-.08.59-.15.44-.13.93-.28,1.39-.09.57.23,1.13.16,1.77.08.38-.04.77-.09,1.19-.08h.18c.52.02,1.32.04,1.81.77.48.72,1.01,1.44,1.52,2.14.79,1.08,1.61,2.19,2.31,3.39l.12.2c.24.43.49.87.81,1.12.41.32.59.66.73,1.07l.06.17c.09.27.16.48.31.65.39.46.54,1.02.64,1.55.08.42.09.83.1,1.23.02.75.05,1.4.47,1.95.25.32.15.82-.11,1.08.02.04.05.08.08.12l.05.07c.16.24.23.49.28.68.03.09.05.18.09.27.25.57.07.95-.05,1.12-.21.29-.57.43-.98.39-.46-.05-.92.08-1.4.22-.24.06-.47.13-.71.18l-.14.02c-.54.11-1.04.21-1.44.51l-.38.28-.34-.29s-.11.06-.15.09c-.25.15-.71.44-1.22.14-.08-.04-.11-.05-.4.08-.25.11-.58.26-.99.19-.01,0-.02.01-.03.02-.16.09-.47.26-.89.18-.43-.08-.92.05-1.54.41-.15.09-.31.23-.47.38-.36.34-.85.79-1.61.79h0c-.22.4-.58.67-1.01.76-.85.19-1.6.62-2.39,1.08-.51.29-1.04.59-1.59.84-.44.18-.85.42-1.28.67-.37.21-.75.43-1.15.62l-.29.14c-.87.4-1.68.78-2.36,1.35-.36.31-.38.39-.15.81.31.58.68,1.12,1.07,1.7.25.38.51.76.75,1.15.25.41.56.78.88,1.18.37.45.75.91,1.06,1.45.29.49.72.89,1.06,1.01.42.14.82.31,1.21.48.26.12.53.23.79.33.15.06.3.11.45.16.53.18,1.13.38,1.65.8.24.19.55.24.95.24.83.02,1.49-.01,2.07-.09.81-.1,1.62-.11,2.4-.11.92-.01,1.8-.02,2.67-.17,1.39-.24,3.02-.45,4.67-.1,1.32.28,2.33-.04,3.18-1.01.22-.25.44-.51.64-.78.48-.61,1.12-1,1.85-1.15.18-.76.72-1.24,1.16-1.62l.21-.18c.22-.21.44-.43.65-.65.61-.64,1.31-1.37,2.34-1.68,0,0,0,0,.01,0,.05-.96.83-1.15,1.13-1.22.07-.02.21-.09.22-.15.13-.47.49-.77.96-.81.14-.29.29-.6.48-.89.29-.45.65-.82,1-1.18.15-.16.29-.31.44-.47l-.15-.09.27-.51.26.11s.01-.02.02-.02c.49-.71,1.18-1.57,2.26-2.05,0-.26.01-.52.02-.77.04-.56.06-1.05-.17-1.48Z"/>
  </g>
</svg>