<?xml version="1.0" encoding="UTF-8"?>
<svg id="Calque_1" data-name="Calque 1" xmlns="http://www.w3.org/2000/svg" viewBox="0 0 732.28 323.53">
  <defs>
    <style>
      .cls-1 {
        fill: #333332;
      }

      .cls-2 {
        fill: #fff;
      }

      .cls-3 {
        fill: #232770;
      }

      .cls-4 {
        fill: #ff78c1;
      }

      .cls-5 {
        fill: #ff5961;
      }

      .cls-6 {
        fill: #247d40;
      }
    </style>
  </defs>
  <g>
    <g>
      <path class="cls-2" d="M66.13,207.39c15.92-4.27,34.9-15.64,34.9-45.58,0-25.68-18.54-43.61-45.09-43.61H0v156.93h29.2v-65.25l1.74.08c.41.03.69,0,.97-.03.31-.03.64-.06,1.07-.06h.89l43.36,65.25h37.01l-50.49-67.1,2.37-.64ZM38.72,191.31c-2.75,0-5.6,0-8.02-.22l-1.51-.14v-49.72h15.69c15.94,0,25.46,8.57,25.46,22.92,0,18.03-10.64,27.17-31.62,27.17Z"/>
      <rect class="cls-2" x="132.46" y="118.2" width="29.2" height="156.93"/>
      <polygon class="cls-2" points="297.89 118.2 256.45 217.94 253.6 217.94 211.94 118.2 179.24 118.2 247.51 275.13 261.69 275.13 329.75 118.2 297.89 118.2"/>
      <path class="cls-2" d="M358.22,118.2l-69.3,156.93h29.51l14.03-32.55h66.61l13.18,32.55h30.39l-65.77-156.93h-18.64ZM341.89,219.62l23.28-55.49h2.65l22.15,55.49h-48.09Z"/>
      <path class="cls-2" d="M526.1,192.38v22.82h42.49l-.21,1.85c-2.44,21.72-20.61,36.32-45.22,36.32-30.4,0-52.46-23.04-52.46-54.79,0-34.3,20.82-57.35,51.82-57.35,18.29,0,33.64,9.09,43.38,25.63l25.47-12.54c-15.02-24.73-40.1-38.87-69.06-38.87-47.93,0-82.71,34.87-82.71,82.92s34.16,79.53,81.23,79.53c24.07,0,44.36-8.04,58.68-23.25,14.63-15.54,21.7-37.04,20.51-62.27h-73.92Z"/>
      <polygon class="cls-2" points="703.78 142.94 703.78 118.2 621.03 118.2 621.03 275.13 703.78 275.13 703.78 250.4 650.22 250.4 650.22 205.21 700.8 205.21 700.8 181.54 650.22 181.54 650.22 142.94 703.78 142.94"/>
    </g>
    <g>
      <path class="cls-2" d="M227.42,66.53h8.75c4.47,0,5.1.94,5.1,4.53v26.38h7.77v-30.91h8.75c4.46,0,5.16.94,5.16,4.53v26.38h39.37c2.66-.61,5.01-1.94,6.44-3.68v3.68h75.26c2.66-.61,5.01-1.94,6.44-3.68v3.68h71.52v-30.91h9.22c4.46,0,5.1.94,5.1,4.53v26.38h14.43v-5.48h-6.66v-20.95c0-6.71-3.88-10.95-11.71-10.95-4.41,0-7.88,1.53-10.55,4.36v-3.88h-14.2v5.53h6.66v25.9h-19.12c.93-1.69,1.54-3.6,1.54-5.89v-14.06c0-7.83-5.56-12.36-15.93-12.36s-15.88,4.53-15.88,12.36v14.06c0,2.28.62,4.19,1.55,5.89h-15.17c.62-1.31.96-2.78.96-4.42v-.65c0-6.77-3.88-8.77-13.44-11.24-8.46-2.12-9.85-2.76-9.85-5.59v-1.65c0-2.23.87-3.12,5.22-3.12h9.85v7.65h7.65v-3.82c0-6.18-4.63-9.47-14.72-9.47s-15.42,4.12-15.42,10.77v.65c0,6.77,3.82,8.71,13.39,11.18,8.52,2.11,9.85,2.76,9.85,5.65v1.65c0,2.35-.87,3.24-5.33,3.24h-10.2v-7.77h-7.65v3.82c0,1.15.2,2.17.51,3.12h-16.58v-31.43h-14.37v5.53h6.66v25.86h-21.58v-21.47c0-6.65-5.42-10.84-15.13-10.84s-14.31,3.58-14.31,9.51v3.89h7.57v-7.57h9.2c3.68,0,5.01.82,5.01,3.99v3.27l-14.01,4.29c-7.67,2.35-8.79,5.01-8.79,10.53v.51c0,1.43.2,2.76.61,3.88,0,.02.02.02.02.04h-15.74v-20.95c0-6.71-3.88-10.95-11.82-10.95-4.35,0-7.94,1.59-10.66,4.48-1.97-2.83-5.45-4.48-10.32-4.48-4.46,0-7.94,1.53-10.61,4.36v-3.88h-14.2v5.53h6.66v25.9h-6.66v5.48h14.37v-30.91ZM412.54,70.18c0-3.53,1.45-4.71,5.8-4.71h4.93c4.35,0,5.8,1.18,5.8,4.71v17.72c0,3.53-1.45,4.71-5.8,4.71h-4.93c-4.35,0-5.8-1.18-5.8-4.71v-17.72ZM293.53,86.19c0-2.35.72-3.37,4.29-4.4l10.74-3.27v13.6h-10.02c-4.19,0-5.01-1.02-5.01-3.88v-2.05Z"/>
      <rect class="cls-2" x="337.22" y="50.1" width="8.23" height="5.87"/>
    </g>
    <path class="cls-2" d="M725.17,135.69c-2.26,0-4.02-.74-5.25-2.24-1.24-1.49-1.86-3.6-1.86-6.32s.62-5.03,1.86-6.59c1.24-1.56,2.99-2.34,5.25-2.34s4.02.78,5.25,2.34,1.86,3.76,1.86,6.59-.62,4.83-1.86,6.32c-1.24,1.49-2.99,2.24-5.25,2.24ZM725.17,133.75c1.59,0,2.83-.58,3.7-1.74.87-1.16,1.31-2.79,1.31-4.88,0-2.22-.44-3.94-1.31-5.16-.87-1.22-2.11-1.83-3.7-1.83s-2.83.61-3.7,1.83c-.87,1.22-1.31,2.94-1.31,5.16,0,2.1.44,3.72,1.31,4.88.87,1.16,2.11,1.74,3.7,1.74ZM722.05,130.89v-7.98h1.99v7.98h-1.99ZM723.86,128.33v-1.64h1.91c.36,0,.64-.1.84-.28.2-.19.3-.45.3-.79s-.1-.61-.3-.79c-.2-.18-.48-.28-.84-.28h-2.16v-1.64h2.16c.96,0,1.7.23,2.22.69.52.46.78,1.14.78,2.01s-.26,1.5-.78,1.98c-.52.48-1.26.72-2.22.72h-1.91ZM726.62,130.89l-1.41-2.67,1.91-.34,1.82,3.01h-2.32Z"/>
  </g>
  <g>
    <path class="cls-2" d="M260.39,320.85c-1.26,0-2.28-.45-2.97-1.23v1.08h-4.06v-1.57h1.88v-10.07h-1.88v-1.55h4.06v2.7l-.05,1.13c.7-.78,1.73-1.25,3-1.25,2.28,0,3.48,1.18,3.48,3.11v4.53c0,1.93-1.21,3.11-3.46,3.11ZM261.64,313.21c0-1.01-.2-1.28-1.53-1.28h-2.69v7.11h2.69c1.33,0,1.53-.27,1.53-1.28v-4.55Z"/>
    <path class="cls-2" d="M274.08,320.96c-2.9,0-4.49-1.28-4.49-3.49v-3.98c0-2.22,1.57-3.5,4.49-3.5s4.51,1.28,4.51,3.5v3.98c0,2.22-1.57,3.49-4.51,3.49ZM276.43,312.97c0-1-.41-1.33-1.64-1.33h-1.39c-1.23,0-1.64.33-1.64,1.33v5.01c0,1,.41,1.33,1.64,1.33h1.39c1.23,0,1.64-.33,1.64-1.33v-5.01Z"/>
    <path class="cls-2" d="M283.61,320.7v-1.57h1.88v-7.32h-1.88v-1.57h4.07v8.89h1.87v1.57h-5.93ZM285.33,309.3v-1.78h2.33v1.78h-2.33Z"/>
    <path class="cls-2" d="M297.9,312.21v6.92h2.08v1.57h-6.15v-1.57h1.89v-7.32h-1.89v-1.57h4.02v1.35c.66-.88,1.56-1.38,2.75-1.38h.92v1.99h-3.62Z"/>
    <path class="cls-2" d="M310.67,320.96c-3.11,0-4.54-1.26-4.54-3.44v-4.08c0-2.18,1.46-3.45,4.44-3.45s4.43,1.18,4.43,3.15v2.79h-6.76v2.07c0,1,.44,1.32,1.64,1.32h2.94v-2.47h2.15v1.07c0,1.98-1.2,3.05-4.29,3.05ZM312.88,312.93c0-.96-.38-1.28-1.62-1.28h-1.39c-1.23,0-1.62.3-1.62,1.27v1.57h4.64v-1.55Z"/>
    <path class="cls-2" d="M332.73,320.96c-3.11,0-4.54-1.26-4.54-3.44v-4.08c0-2.18,1.46-3.45,4.44-3.45s4.43,1.18,4.43,3.15v2.79h-6.76v2.07c0,1,.44,1.32,1.64,1.32h2.94v-2.47h2.15v1.07c0,1.98-1.2,3.05-4.29,3.05ZM334.94,312.93c0-.96-.38-1.28-1.62-1.28h-1.39c-1.23,0-1.62.3-1.62,1.27v1.57h4.64v-1.55Z"/>
    <path class="cls-2" d="M346.34,320.7c-1.9,0-2.64-.73-2.64-2.71v-6.17h-1.88v-1.57h1.9v-2.26h2.17v2.26h2.33v1.57h-2.31v7.31h2.31v1.58h-1.87Z"/>
    <path class="cls-2" d="M374.1,320.7v-7.47c0-1.02-.2-1.29-1.46-1.29h-2.48v8.76h-2.2v-7.47c0-1.02-.18-1.29-1.44-1.29h-2.48v8.76h-4.07v-1.57h1.88v-7.32h-1.88v-1.57h4.01v1.1c.75-.8,1.74-1.23,3-1.23,1.38,0,2.36.46,2.92,1.26.77-.81,1.79-1.26,3.02-1.26,2.24,0,3.34,1.2,3.34,3.1v5.92h1.89v1.57h-4.06Z"/>
    <path class="cls-2" d="M382.76,318.02v-.15c0-1.55.33-2.32,2.49-2.98l3.97-1.21v-.9c0-.9-.39-1.13-1.42-1.13h-2.61v2.13h-2.13v-1.1c0-1.68,1.33-2.68,4.05-2.68s4.27,1.17,4.27,3.05v6.09h1.89v1.57h-4v-1.05c-.62.75-1.81,1.21-3.1,1.21-2.35,0-3.41-1-3.41-2.85ZM389.22,315.32l-3.03.93c-1.01.3-1.21.6-1.21,1.27v.55c0,.83.23,1.12,1.41,1.12h2.84v-3.86Z"/>
    <path class="cls-2" d="M405.65,320.7v-7.47c0-1.02-.18-1.29-1.44-1.29h-2.6v8.76h-4.07v-1.57h1.88v-7.32h-1.88v-1.57h4.01v1.1c.75-.8,1.74-1.23,2.98-1.23,2.21,0,3.31,1.2,3.31,3.1v5.92h1.89v1.57h-4.08Z"/>
    <path class="cls-2" d="M423.11,311.81v8.31c0,2.2-1.53,3.41-4.56,3.41s-4.05-.9-4.05-2.5v-.95h2.23v1.85h2.62c1.11,0,1.57-.32,1.57-1.27v-2.41c-.66.77-1.71,1.22-3.05,1.22-2.3,0-3.49-1.18-3.49-3.08v-3.18c0-1.93,1.2-3.1,3.53-3.1,1.29,0,2.36.46,3.06,1.26v-1.13h4.02v1.57h-1.88ZM420.93,311.93h-2.75c-1.36,0-1.57.27-1.57,1.28v3.23c0,1.02.21,1.28,1.57,1.28h2.75v-5.79Z"/>
    <path class="cls-2" d="M434.26,320.96c-3.11,0-4.54-1.26-4.54-3.44v-4.08c0-2.18,1.46-3.45,4.44-3.45s4.42,1.18,4.42,3.15v2.79h-6.75v2.07c0,1,.44,1.32,1.64,1.32h2.93v-2.47h2.15v1.07c0,1.98-1.2,3.05-4.29,3.05ZM436.47,312.93c0-.96-.38-1.28-1.62-1.28h-1.4c-1.23,0-1.62.3-1.62,1.27v1.57h4.64v-1.55Z"/>
    <path class="cls-2" d="M447.67,312.21v6.92h2.08v1.57h-6.15v-1.57h1.88v-7.32h-1.88v-1.57h4.01v1.35c.66-.88,1.56-1.38,2.75-1.38h.92v1.99h-3.62Z"/>
  </g>
  <g>
    <g>
      <path class="cls-2" d="M66.13,207.39c15.92-4.27,34.9-15.64,34.9-45.58,0-25.68-18.54-43.61-45.09-43.61H0v156.93h29.2v-65.25l1.74.08c.41.03.69,0,.97-.03.31-.03.64-.06,1.07-.06h.89l43.36,65.25h37.01l-50.49-67.1,2.37-.64ZM38.72,191.31c-2.75,0-5.6,0-8.02-.22l-1.51-.14v-49.72h15.69c15.94,0,25.46,8.57,25.46,22.92,0,18.03-10.64,27.17-31.62,27.17Z"/>
      <rect class="cls-2" x="132.46" y="118.2" width="29.2" height="156.93"/>
      <polygon class="cls-2" points="297.89 118.2 256.45 217.94 253.6 217.94 211.94 118.2 179.24 118.2 247.51 275.13 261.69 275.13 329.75 118.2 297.89 118.2"/>
      <path class="cls-2" d="M358.22,118.2l-69.3,156.93h29.51l14.03-32.55h66.61l13.18,32.55h30.39l-65.77-156.93h-18.64ZM341.89,219.62l23.28-55.49h2.65l22.15,55.49h-48.09Z"/>
      <path class="cls-2" d="M526.1,192.38v22.82h42.49l-.21,1.85c-2.44,21.72-20.61,36.32-45.22,36.32-30.4,0-52.46-23.04-52.46-54.79,0-34.3,20.82-57.35,51.82-57.35,18.29,0,33.64,9.09,43.38,25.63l25.47-12.54c-15.02-24.73-40.1-38.87-69.06-38.87-47.93,0-82.71,34.87-82.71,82.92s34.16,79.53,81.23,79.53c24.07,0,44.36-8.04,58.68-23.25,14.63-15.54,21.7-37.04,20.51-62.27h-73.92Z"/>
      <polygon class="cls-2" points="703.78 142.94 703.78 118.2 621.03 118.2 621.03 275.13 703.78 275.13 703.78 250.4 650.22 250.4 650.22 205.21 700.8 205.21 700.8 181.54 650.22 181.54 650.22 142.94 703.78 142.94"/>
    </g>
    <g>
      <path class="cls-2" d="M227.42,66.53h8.75c4.47,0,5.1.94,5.1,4.53v26.38h7.77v-30.91h8.75c4.46,0,5.16.94,5.16,4.53v26.38h39.37c2.66-.61,5.01-1.94,6.44-3.68v3.68h75.26c2.66-.61,5.01-1.94,6.44-3.68v3.68h71.52v-30.91h9.22c4.46,0,5.1.94,5.1,4.53v26.38h14.43v-5.48h-6.66v-20.95c0-6.71-3.88-10.95-11.71-10.95-4.41,0-7.88,1.53-10.55,4.36v-3.88h-14.2v5.53h6.66v25.9h-19.12c.93-1.69,1.54-3.6,1.54-5.89v-14.06c0-7.83-5.56-12.36-15.93-12.36s-15.88,4.53-15.88,12.36v14.06c0,2.28.62,4.19,1.55,5.89h-15.17c.62-1.31.96-2.78.96-4.42v-.65c0-6.77-3.88-8.77-13.44-11.24-8.46-2.12-9.85-2.76-9.85-5.59v-1.65c0-2.23.87-3.12,5.22-3.12h9.85v7.65h7.65v-3.82c0-6.18-4.63-9.47-14.72-9.47s-15.42,4.12-15.42,10.77v.65c0,6.77,3.82,8.71,13.39,11.18,8.52,2.11,9.85,2.76,9.85,5.65v1.65c0,2.35-.87,3.24-5.33,3.24h-10.2v-7.77h-7.65v3.82c0,1.15.2,2.17.51,3.12h-16.58v-31.43h-14.37v5.53h6.66v25.86h-21.58v-21.47c0-6.65-5.42-10.84-15.13-10.84s-14.31,3.58-14.31,9.51v3.89h7.57v-7.57h9.2c3.68,0,5.01.82,5.01,3.99v3.27l-14.01,4.29c-7.67,2.35-8.79,5.01-8.79,10.53v.51c0,1.43.2,2.76.61,3.88,0,.02.02.02.02.04h-15.74v-20.95c0-6.71-3.88-10.95-11.82-10.95-4.35,0-7.94,1.59-10.66,4.48-1.97-2.83-5.45-4.48-10.32-4.48-4.46,0-7.94,1.53-10.61,4.36v-3.88h-14.2v5.53h6.66v25.9h-6.66v5.48h14.37v-30.91ZM412.54,70.18c0-3.53,1.45-4.71,5.8-4.71h4.93c4.35,0,5.8,1.18,5.8,4.71v17.72c0,3.53-1.45,4.71-5.8,4.71h-4.93c-4.35,0-5.8-1.18-5.8-4.71v-17.72ZM293.53,86.19c0-2.35.72-3.37,4.29-4.4l10.74-3.27v13.6h-10.02c-4.19,0-5.01-1.02-5.01-3.88v-2.05Z"/>
      <rect class="cls-2" x="337.22" y="50.1" width="8.23" height="5.87"/>
    </g>
    <path class="cls-2" d="M725.17,135.69c-2.26,0-4.02-.74-5.25-2.24-1.24-1.49-1.86-3.6-1.86-6.32s.62-5.03,1.86-6.59c1.24-1.56,2.99-2.34,5.25-2.34s4.02.78,5.25,2.34,1.86,3.76,1.86,6.59-.62,4.83-1.86,6.32c-1.24,1.49-2.99,2.24-5.25,2.24ZM725.17,133.75c1.59,0,2.83-.58,3.7-1.74.87-1.16,1.31-2.79,1.31-4.88,0-2.22-.44-3.94-1.31-5.16-.87-1.22-2.11-1.83-3.7-1.83s-2.83.61-3.7,1.83c-.87,1.22-1.31,2.94-1.31,5.16,0,2.1.44,3.72,1.31,4.88.87,1.16,2.11,1.74,3.7,1.74ZM722.05,130.89v-7.98h1.99v7.98h-1.99ZM723.86,128.33v-1.64h1.91c.36,0,.64-.1.84-.28.2-.19.3-.45.3-.79s-.1-.61-.3-.79c-.2-.18-.48-.28-.84-.28h-2.16v-1.64h2.16c.96,0,1.7.23,2.22.69.52.46.78,1.14.78,2.01s-.26,1.5-.78,1.98c-.52.48-1.26.72-2.22.72h-1.91ZM726.62,130.89l-1.41-2.67,1.91-.34,1.82,3.01h-2.32Z"/>
  </g>
  <g>
    <path class="cls-3" d="M323.63,9.29L314.35.01l-9.28,9.28v11.9c5.67-2.84,12.6-2.76,18.17.3h0c.13.07.27.12.4.19v-12.39h-.01Z"/>
    <path class="cls-6" d="M388.58.01l-9.26,9.26h.01v12.39c.12-.06.24-.1.36-.17h0c5.57-3.06,12.5-3.14,18.17-.3v-11.9L388.58.01Z"/>
    <path class="cls-5" d="M332.94,0l-9.29,9.29v12.39c5.71,2.97,12.77,2.92,18.41-.19h0s.09-.04.13-.06c0,0,.01,0,.02,0v-12.13l-9.27-9.29Z"/>
    <path class="cls-4" d="M379.31,9.28l-9.25-9.28-9.29,9.29-.02,12.14s.09.04.13.06h0c5.66,3.11,12.74,3.16,18.46.17v-12.37h-.01Z"/>
    <path class="cls-1" d="M351.5,0l-9.29,9.29v12.13c5.71-3.08,12.83-3.07,18.54,0h0s.02-12.14.02-12.14l-9.27-9.29Z"/>
  </g>
</svg>