<?xml version="1.0" encoding="UTF-8"?>
<svg id="Calque_1" data-name="Calque 1" xmlns="http://www.w3.org/2000/svg" viewBox="0 0 428.85 561.41">
  <defs>
    <style>
      .cls-1 {
        fill: #fff;
      }

      .cls-2 {
        fill: #ff5961;
      }
    </style>
  </defs>
  <polygon class="cls-2" points="214.41 0 0 214.42 0 561.41 428.85 561.41 428.85 214.42 214.41 0"/>
  <g>
    <path class="cls-1" d="M402.99,520.81c-2.12,1.51-4.54,3-7.19,4.44-2.74,1.49-5.56,2.83-8.39,4-2.82,1.16-5.58,2.11-8.18,2.81-2.62.71-4.93,1.07-6.85,1.07-3.94,0-4.77-2.44-4.77-4.49s.26-3.45.79-4.44l.12-.22.22.05c.33.08.68.12,1.05.12h1.11c2.78,0,5.82-.48,9.03-1.42,3.21-.94,6.22-2.17,8.94-3.65,2.71-1.47,4.99-3.18,6.8-5.11,1.76-1.86,2.65-3.76,2.65-5.63,0-5.12-3.99-7.71-11.85-7.71-3.12,0-6.55.79-10.21,2.34-3.66,1.56-7.11,3.7-10.24,6.36-3.14,2.67-5.77,5.82-7.81,9.37-1.25,2.16-2.13,4.53-2.62,7.06l-.03.17-.13.08c-.2.12-.41.25-.62.38-.28.18-.57.36-.86.53-1.67.96-3.21,1.76-4.57,2.38-1.43.65-2.39.96-2.93.96-1.38,0-1.59-1.02-1.59-1.62s.26-1.81,2.49-5.57l3.92-6.6c2.49-4.15,3.75-7.3,3.75-9.37,0-4.35-2.36-6.47-7.2-6.47-1.03,0-2.35.25-3.94.74-1.6.49-3.27,1.12-4.94,1.86-1.68.74-3.31,1.55-4.85,2.42-1.51.85-2.71,1.65-3.54,2.38l-.52.46v-.76c0-4.77-2.35-7.09-7.2-7.09-.82,0-1.94.19-3.32.55-1.39.37-2.86.85-4.36,1.42-1.5.57-2.93,1.22-4.26,1.92-1.31.69-2.28,1.32-2.9,1.88l-1.89,1.72,4.08-6.4c-3.31.85-6.96,1.27-10.86,1.27-1.07,0-2.13-.15-3.15-.44l-12.7,21.33c-1.69,1.11-3.34,2.13-4.92,3.04-1.66.96-3.19,1.76-4.52,2.38-1.39.64-2.33.96-2.87.96-1.39,0-1.59-1.02-1.59-1.62,0-.48.17-1.41,1.64-4.07l13.4-22.85c-3.19.85-6.71,1.28-10.48,1.28-1.14,0-2.23-.15-3.25-.44l-1.24,2.19-.25-.59c-1.01-2.37-2.89-3.53-5.74-3.53-3.04,0-6.22.87-9.45,2.58-3.24,1.72-6.24,3.98-8.92,6.72-2.68,2.74-4.9,5.89-6.6,9.36-.96,1.96-1.64,3.95-2.08,6.07l-.03.17-.13.08c-.28.17-.56.34-.84.52-.44.27-.87.54-1.3.79-1.66.96-3.19,1.76-4.52,2.38-1.41.65-2.29.96-2.77.96-.96,0-1.49-.58-1.49-1.62,0-.48.17-1.41,1.64-4.07l29.17-49.61c-3.2.85-6.79,1.27-10.69,1.27-.49,0-1.52-.11-3.13-.35l-16.92,28.84-.25-.56c-1.01-2.29-2.75-3.41-5.32-3.41-2.91,0-6.05.83-9.35,2.46-3.31,1.64-6.38,3.82-9.13,6.48-2.75,2.66-5.06,5.77-6.86,9.24-1.08,2.08-1.85,4.31-2.29,6.64l-.03.17-.13.08c-.24.15-.48.3-.73.45-.34.22-.69.44-1.03.63-1.64.95-3.16,1.75-4.52,2.38-1.39.64-2.33.96-2.87.96-1.39,0-1.59-1.02-1.59-1.62,0-.48.17-1.41,1.64-4.07l13.4-22.85c-3.19.85-6.71,1.28-10.48,1.28-1.14,0-2.23-.15-3.25-.44l-1.24,2.19-.25-.59c-1.01-2.37-2.89-3.53-5.75-3.53-3.05,0-6.22.87-9.44,2.58-3.24,1.72-6.24,3.98-8.92,6.72-2.67,2.73-4.89,5.89-6.6,9.36-1.69,3.46-2.55,6.93-2.55,10.33,0,6.28,2.8,9.33,8.57,9.33,4.53,0,8.26-2.05,11.08-6.08l.57-.82v1.93c0,3.1,1.59,4.6,4.87,4.6,1.44,0,3.33-.45,5.61-1.35,2.3-.9,4.8-2.08,7.43-3.53,1.6-.88,3.32-1.92,5.39-3.27l.44-.29.04.59c.34,5.53,3.12,8.22,8.5,8.22,4.74,0,8.46-2.04,11.07-6.07l.58-.9v1.13c0,.2-.02.4-.06.59-.03.15-.05.28-.05.41,0,3.1,1.49,4.6,4.55,4.6,4.72,0,11.13-2.8,19.07-8.33l.45-.31.03.61c.32,5.57,3.1,8.28,8.5,8.28,4.53,0,8.26-2.05,11.08-6.08l.57-.82v1.93c0,3.1,1.59,4.6,4.87,4.6,1.45,0,3.34-.45,5.61-1.35,2.3-.9,4.8-2.08,7.43-3.53,1.31-.72,2.66-1.51,4.12-2.42l1.18-.74-4.7,7.92h13.4l11.55-19.38c.86-1.35,1.83-2.66,2.9-3.91,1.07-1.26,2.19-2.34,3.33-3.22,1.14-.88,2.32-1.6,3.5-2.15,1.2-.55,2.32-.84,3.35-.84,1.93,0,2.34,1.36,2.34,2.5,0,1.01-.35,1.97-1.04,2.87l-14.33,24.14h13.4l11.44-19.38c.86-1.51,1.85-2.89,2.96-4.11,1.1-1.22,2.26-2.28,3.43-3.15,1.18-.88,2.36-1.59,3.5-2.09,1.16-.51,2.27-.77,3.29-.77,1.93,0,2.34,1.36,2.34,2.5,0,1.01-.35,1.97-1.04,2.87l-5.38,9.17c-2.84,4.81-4.28,8.34-4.28,10.49,0,3.1,1.83,4.6,5.6,4.6,5.06,0,11.65-2.72,19.58-8.09l.46-.31.02.62c.13,3.54,1.05,5.86,2.74,6.88,1.92,1.17,4.72,1.76,8.32,1.76,11.73,0,24.57-5.48,38.19-16.28l-1.43-2.38ZM369.63,520.81c.36-1.36,1.15-2.95,2.33-4.73,1.17-1.76,2.54-3.45,4.06-5.03,1.52-1.58,3.16-2.91,4.88-3.97,1.74-1.06,3.39-1.6,4.91-1.6,1.84,0,2.23,1.22,2.23,2.25,0,1.35-.71,2.82-2.11,4.39-1.35,1.51-3.01,2.95-4.93,4.28-1.9,1.33-3.89,2.47-5.92,3.39-2.03.92-3.75,1.43-5.13,1.52l-.46.03.14-.52ZM177.53,511.44l-6.45,10.82c-3.84,6.39-7.18,9.5-10.22,9.5-1.09,0-1.69-.71-1.69-2,0-.98.32-2.21.98-3.78.64-1.51,1.51-3.16,2.57-4.9,1.07-1.77,2.28-3.56,3.57-5.32,1.29-1.76,2.59-3.4,3.88-4.88,1.28-1.46,2.5-2.67,3.64-3.59,1.2-.97,2.2-1.44,3.04-1.44,1.76,0,2.02,1.1,2.02,1.75,0,1.16-.45,2.45-1.33,3.83ZM221.59,511.41v.02s-6.47,10.83-6.47,10.83c-3.84,6.39-7.11,9.5-10,9.5-1.76,0-2.02-1.25-2.02-2,0-.9.32-2.09.99-3.65.64-1.52,1.49-3.16,2.51-4.9,1.03-1.75,2.21-3.54,3.51-5.32,1.32-1.8,2.62-3.47,3.88-4.94,1.26-1.49,2.51-2.72,3.7-3.66,1.23-.97,2.25-1.43,3.09-1.43,1.76,0,2.02,1.1,2.02,1.75-.16,1.27-.56,2.54-1.21,3.81ZM265.61,511.44l-6.45,10.82c-3.84,6.39-7.18,9.5-10.21,9.5-1.1,0-1.7-.71-1.7-2,0-.98.32-2.22.99-3.78.64-1.51,1.51-3.16,2.57-4.9,1.04-1.72,2.24-3.51,3.56-5.32,1.32-1.8,2.62-3.44,3.88-4.88,1.27-1.45,2.49-2.66,3.64-3.59,1.2-.97,2.19-1.44,3.04-1.44,1.75,0,2.01,1.1,2.01,1.75,0,1.16-.45,2.45-1.33,3.83Z"/>
    <path class="cls-1" d="M139.58,526.36c.77-17.84,15.04-44.1,23.57-59.8l.16-.29c5.57-10.24,10.85-16.02,12.99-16.26.52-.05.9.06,1.17.38.29.35.37.85.39,1.22l.04.9,7.06-7.59-1.06-.81c-1.19-.91-2.73-1.35-4.69-1.35-18.8,0-43.55,34.42-56.67,55,.36-2.64.42-4.25.53-6.68l.03-.67c.04-.94.09-2,.16-3.28.89-16.18,2-36.32,12.58-39.68l1.26-.4-1.97-4.37-.82.09c-.46.05-11.56,1.54-24.12,20.39-1.25-13.26-7.68-20.56-18.13-20.56-23.18,0-35.52,21.31-35.52,36.7,0,5.54,1.46,10.3,4.22,13.77,3.05,3.83,7.58,5.86,13.09,5.86,12.39,0,18.7-10.24,20.84-14.65l.47-.98-13.64-8.64-.08,2.03c-.14,3.61-3.13,7.48-7.35,7.48-2.42,0-4.3-.86-5.59-2.56-1.22-1.61-1.86-3.93-1.86-6.71,0-10.05,8.49-24.59,23.85-24.59,4.24,0,7.45,1.37,9.54,4.07,1.95,2.53,2.95,6.19,2.95,10.87,0,22.21-23.4,61.97-46.43,61.97-3.73,0-6.62-1.11-8.34-3.2-1.39-1.68-1.97-3.99-1.64-6.5l.39-2.96-22.34,18.5-.2.17.08.24c3.07,9.63,11.54,14.94,23.85,14.94,29.69,0,50.1-31.45,58.55-58.39,2.58-8.19,5.55-15.43,8.83-21.53-2.68,8.74-4.79,20.04-5.79,31-.73,7.99-1.62,23.07-1.87,27.5l-.06.98.7-.69c9.16-9.05,18.26-20.35,25.63-31.8,7.93-12.33,15.86-22.29,20.72-28.37l.03.02c-.45.83-.89,1.63-1.3,2.41l-37.89,70.08-.3.56h26.05v-2.18l-.04-.17c-.71-1.37-2.35-5.22-2.03-11.49Z"/>
  </g>
</svg>